<?xml version="1.0" encoding="utf-8"?>
<!-- Generator: Adobe Illustrator 23.0.1, SVG Export Plug-In . SVG Version: 6.00 Build 0)  -->
<svg version="1.1" id="Capa_1" xmlns="http://www.w3.org/2000/svg" xmlns:xlink="http://www.w3.org/1999/xlink" x="0px" y="0px"
	 viewBox="0 0 58.4 58.4" style="enable-background:new 0 0 58.4 58.4;" xml:space="preserve">
<style type="text/css">
	.st0{fill:#51BB75;}
</style>
<path class="st0" d="M57.9,26.6l-8.7-8.1V5.4h-10v3.9L29.2,0L0.5,26.6c-0.4,0.4-0.4,1-0.1,1.4c0.4,0.4,1,0.4,1.4,0.1L5.2,25v33.3h16
	h16h16V25l3.3,3.1c0.2,0.2,0.4,0.3,0.7,0.3s0.5-0.1,0.7-0.3C58.3,27.6,58.3,27,57.9,26.6z M41.2,7.4h6v9.3l-6-5.6V7.4z M23.2,56.4
	V35.3c0-0.5,0.4-0.9,0.9-0.9h10.1c0.5,0,0.9,0.4,0.9,0.9v21.1C35.2,56.4,23.2,56.4,23.2,56.4z M51.2,56.4h-14V35.3
	c0-1.6-1.3-2.9-2.9-2.9H24.1c-1.6,0-2.9,1.3-2.9,2.9v21.1h-14V23.2l22-20.4L43.5,16l5.7,5.3l0,0l2,1.9V56.4z"/>
</svg>
