<?xml version="1.0" encoding="utf-8"?>
<!-- Generator: Adobe Illustrator 23.0.1, SVG Export Plug-In . SVG Version: 6.00 Build 0)  -->
<svg version="1.1" id="Capa_1" xmlns="http://www.w3.org/2000/svg" xmlns:xlink="http://www.w3.org/1999/xlink" x="0px" y="0px"
	 viewBox="0 0 187.3 187.3" style="enable-background:new 0 0 187.3 187.3;" xml:space="preserve">
<style type="text/css">
	.st0{fill:#51BB75;}
</style>
<g>
	<g>
		<path class="st0" d="M125.4,95.6c-1.6-1.2-4.3,0.4-4.2,2.4c0.7,6.9,1.8,13.2,1.6,20.2c-0.3,8-1.1,15.9-1.2,23.9
			c-14.9,0.4-29.7-0.9-44.5-0.9c0.5-32.1,0.6-64.4,0.5-96.4c0-2.5-2.5-3.3-4.2-2.6c0,0,0,0,0,0C66.8,34,52.5,29.8,43.4,25
			C33.1,19.7,23,13.6,14.4,5.9C30,7,45.5,9.2,61.1,10.4c20.1,1.5,40.2-2.2,60.3,0.4c0.5,6.4,0.4,12.8,0,19.3
			c-0.3,5.9-1.4,12.7,0.9,18.3c1.2,3,5.1,2.4,5.5-0.7c0.8-6.5,0.2-13.5,0.5-20.2c0.3-5.8,0.2-11.5-1.4-17.1c1.9-1.6,2-5-1-5.5
			c-17.9-3.3-36.1-1.4-54.2-1C50.9,4.3,30.5-1.7,9.8,0.8c-0.2,0-0.3,0.1-0.4,0.1c-0.9-1.1-2.8-1-3.5,0.7c-9.3,23-5.1,50-3.9,74.1
			c1.2,24-2.4,48.7,3.5,72.3c0.3,1.3,1.3,1.8,2.3,1.8c16.2,18,41.9,25.3,62.5,37c1.4,0.8,2.7,0.4,3.5-0.5c1.1,0,2.2-0.7,2.2-2.2
			c0.5-12.6,0.8-25.3,1-37.9c15.9,2,31.9,3.3,48,2.7c1.9-0.1,3.4-1.5,3.5-3.5c0.3-10,1.3-19.9,1.5-29.9
			C130,109.5,130.9,99.6,125.4,95.6z M34.2,26.7c11.1,6.4,24.7,15.9,37,19.3c0.2,0.1,0.4,0.1,0.6,0.1c0,1.8-0.1,3.7-0.1,5.6
			c-7.4-7.9-18.4-13.1-27.7-18.1C31.8,27.1,19.7,21.2,8.6,13C8.8,11.2,9,9.3,9.3,7.4C15.7,15.8,25,21.4,34.2,26.7z M7.3,51.2
			c21.4,9.5,42.5,19,61.4,33.1c0.7,0.5,1.4,0.4,1.9,0.1c-0.1,3-0.2,6-0.3,9.1C49.5,81.1,27.9,69.8,7.4,56.7
			C7.4,54.9,7.4,53.1,7.3,51.2z M7.5,59.4c19.9,13.9,40.7,27.9,62.7,38.4c0,1.2-0.1,2.4-0.1,3.7C50.5,87.8,29.9,75.6,8.3,65.3
			c-0.2-0.1-0.4-0.1-0.6,0C7.6,63.3,7.6,61.4,7.5,59.4z M8,75.7c-0.1-3-0.2-5.9-0.3-8.8c21.2,11.5,41.2,24.9,61,38.7
			c0.4,0.3,0.8,0.3,1.2,0.3c-0.1,2-0.1,4-0.2,6C49.5,99.6,28.6,88.5,8,76.9C8,76.5,8,76.1,8,75.7z M8,79
			c20.4,12.7,40.3,26.3,61.5,37.5c0,0.9-0.1,1.9-0.1,2.8C49.1,108.2,28,98.9,8.2,86.8C8.1,84.2,8.1,81.6,8,79z M8.2,94.7
			c0-1.9,0-3.9,0-5.8c18.8,13.7,40,25.3,61.2,34.8c0,0.8-0.1,1.6-0.1,2.4C50.4,113,27.1,107.8,8.2,94.7z M69.3,130.4
			c0,1.8-0.1,3.6-0.1,5.4c-18.4-13.1-41-21.2-60.8-31.9c-0.1,0-0.2-0.1-0.3-0.1c0-2.3,0-4.6,0-6.8C26.4,111.3,49.7,117.9,69.3,130.4
			z M8.2,106.1c19.9,11.6,40.5,23,61.1,33.3c0,3.1,0,6.2,0.1,9.3c-17.3-15-41.4-20.4-61-31.8C8.2,113.3,8.2,109.7,8.2,106.1z
			 M8.5,126.8c-0.1-2.7-0.2-5.3-0.2-8c19.5,13.1,42.9,19.5,61.1,34.4c0.1,3,0.2,6.1,0.3,9.1c-7.2-7-19.6-11.5-27.8-15.8
			c-6.9-3.7-13.8-7.3-20.6-11.1C18.8,134.1,9.1,130,8.5,126.8C8.5,126.8,8.5,126.8,8.5,126.8z M8.8,131c4.5,5.2,17,10.7,19.5,12.2
			C42,151.1,55.9,159.7,70,167c0.1,2.4,0.3,4.7,0.5,7.1c-13-7.5-26.1-15.4-38.4-24c-6.1-4.2-14.8-13.3-23-14
			C9,134.5,8.9,132.7,8.8,131z M10.3,147c0-0.1,0-0.2,0-0.4c-0.4-2.5-0.6-5-0.9-7.5c19.5,14.3,40.2,27.7,61.4,39.1
			c0.1,0.6,0.1,1.3,0.2,1.9C51,168.6,29.4,160.4,10.3,147z M70.8,80.7C52.7,65.2,29.3,57.3,7.3,49.1c-0.1-3.8-0.1-7.5,0-11.3
			C25,54,49.1,63.2,71.1,72.1C71,74.9,70.9,77.8,70.8,80.7z M71.3,67.5c-21.7-10-44.9-16.6-63.6-32.2c-0.1-0.1-0.3-0.2-0.4-0.2
			c0.1-3,0.2-6.1,0.3-9.1C19.1,34.3,31.3,41.2,43.7,48c3.1,1.7,22.4,13.2,27.7,13.3C71.3,63.4,71.3,65.4,71.3,67.5z M58.6,51.3
			C41,44.1,23.4,34.3,7.8,23.5c0.2-2.7,0.3-5.3,0.6-8c9.4,7.3,19.7,13.3,29.9,19.3c11.4,6.8,21.9,14.8,33.2,21.7c0,0,0,0,0,0.1
			C67.5,54.1,62.1,52.7,58.6,51.3z"/>
		<path class="st0" d="M186.7,67.1c0-0.3,0-0.5-0.2-0.8c-2.6-6.9-11.4-11.6-17.3-15.4c-8-5.1-16.5-9.3-25.3-12.7
			c-1.1-0.4-1.9,0.3-2.1,1.2c-1.1,0.2-2.1,0.9-2.3,2.1c-0.9,4.5-0.5,9.9,0.1,14.8c-3.7-0.7-8.2-0.4-10.8-0.4
			c-9.8-0.1-20,0.2-29.8,1.5c-1.3,0.2-2,1.4-1.8,2.4c0,0.1-0.1,0.3-0.1,0.4c-0.5,4.5-0.8,9-0.8,13.6c0,2.9-0.3,6.7,1.2,9.3
			c-0.3,0.3-0.7,0.5-0.9,0.8c-0.3,0.3-0.3,0.7,0,1c4.5,4.8,13.3,2.3,19.2,2c8.4-0.5,17.4-0.5,25.7-2.1c-0.4,2.2-0.2,4.7-0.4,6.8
			c-0.2,3.2-0.6,6.4-0.8,9.6c-0.2,3.6,4.5,4,6,1.5c0,0,0.1,0,0.1,0c17.7-1.1,31.5-18.6,40.5-32.1C187.6,69.3,187.4,68,186.7,67.1z
			 M163.9,55.2c6,3.7,11,9.1,16.8,12.9c-0.5,0.8-1.1,1.6-1.7,2.4c-11.3-7.2-21.7-15.6-33.2-22.5c0-1.4,0-2.8-0.2-4.2
			C151.6,47.7,157.8,51.4,163.9,55.2z M102.6,80.9c0.1-1.6-0.1-3.3-0.4-5c1.4,1.1,2.7,2.3,4.1,3.4c0.5,0.4,1,0.8,1.5,1.2
			C106,80.5,104.2,80.6,102.6,80.9z M115.6,80.5c-0.9,0.1-1.9,0.1-2.9,0.1c-1.3-0.8-2.6-1.6-3.8-2.4c-2.4-1.7-4.8-3.5-7.1-5.4
			c-0.2-3.1-0.5-6.1-0.8-9.2c5.7,6.1,12.4,12,19.4,16.5C118.8,80.2,117.2,80.3,115.6,80.5z M124.9,79.5c-0.1-0.1-0.1-0.2-0.2-0.2
			c-7.7-5.9-15.6-11.3-23.1-17.6c2,0.4,4.1,0.5,6.2,0.6c3.7,3.4,7.5,6.8,11.3,10c2.4,2,5.4,5,8.5,6.8
			C126.7,79.4,125.8,79.4,124.9,79.5z M132.6,78.8C132.6,78.8,132.6,78.8,132.6,78.8c-2.8-3.1-7.3-5.3-10.6-7.7
			c-3.8-2.8-7.5-5.7-11.2-8.6c1.8,0,3.6,0,5.4,0c0,0.2,0.1,0.3,0.3,0.5c5.9,5.5,12.2,10.7,18.5,15.7
			C134.1,78.7,133.4,78.8,132.6,78.8z M146.9,96.9c0.1-2.6,0.2-5.9-0.1-8.8c2.5,2,5,4.1,7.5,6.1C151.9,95.4,149.5,96.3,146.9,96.9z
			 M157.7,92.4c-3.7-3.6-7.7-6.8-11.7-9.9c0.5-1.6-0.6-3.6-2.6-3.7c-0.8-0.1-1.7-0.1-2.6-0.1c-7.3-5.3-14.7-10.4-21.6-16.3
			c1,0,2,0,3-0.1c1.7,0,3.4,0,5.1,0c9.6,10.5,21.1,19.9,32.1,28.9C158.8,91.6,158.3,92,157.7,92.4z M162,89.3
			c-9-10.2-21.1-17.6-31.1-26.9c1.2,0,2.4,0.1,3.7,0.1c2.1,0.1,4.4,0.8,6.5,1.1c4.9,3.2,9.7,6.6,14.2,10.4c2.5,2.1,5,4.3,7.4,6.5
			c1.5,1.4,2.9,3.2,4.9,3.9C165.8,86.1,163.9,87.8,162,89.3z M169.4,82.5c-1.5-4.3-8.8-8.6-12.1-11.1c-3.8-2.9-7.9-6.1-12.3-8.4
			c0.7-0.6,1.1-1.4,0.7-2.4c-0.2-0.5-0.5-1-0.8-1.4c0.1-0.5,0.1-1,0.2-1.6c3.9,3.8,7.9,7.6,11.9,11.3c3.8,3.6,8.8,9.6,14.1,10.7
			c0.3,0.1,0.7-0.1,0.9-0.2C171.2,80.4,170.3,81.5,169.4,82.5z M172.3,78.1c-3-4.5-9.1-7.7-13.2-11.3c-4.6-3.9-9-8.2-13.7-12
			c0.1-1.4,0.2-2.7,0.3-4.1c10.5,7.4,20.2,15.8,31,22.9c-1.4,1.9-2.9,3.7-4.4,5.5C172.5,78.8,172.6,78.4,172.3,78.1z"/>
	</g>
</g>
</svg>
