<?xml version="1.0" encoding="utf-8"?>
<!-- Generator: Adobe Illustrator 22.0.1, SVG Export Plug-In . SVG Version: 6.00 Build 0)  -->
<svg version="1.1" id="Layer_1" xmlns="http://www.w3.org/2000/svg" xmlns:xlink="http://www.w3.org/1999/xlink" x="0px" y="0px"
	 viewBox="0 0 100 100" style="enable-background:new 0 0 100 100;" xml:space="preserve">
<g>
	<path d="M60.6,28.5c-1.2-1.2-2.9-1.5-4.3-0.9C54.8,28.2,54,29.5,54,31v10c0,1.1,0.9,2,2,2s2-0.9,2-2v-9.5l18.9,18L58.3,67.1
		c-0.1,0-0.3-0.1-0.3-0.2V57c0-1.1-0.9-2-2-2s-2,0.9-2,2v10c0,1.6,1.1,3.1,2.7,3.7c0.6,0.2,1.1,0.3,1.7,0.3c1,0,1.9-0.4,2.6-1
		l18.9-17.9c0.7-0.7,1.1-1.7,1.1-2.7c0-1-0.4-2-1.2-2.7L60.6,28.5z"/>
	<path d="M58.4,49c0-1.1-0.9-2-2-2h-36c-1.1,0-2,0.9-2,2s0.9,2,2,2h36C57.5,51,58.4,50.1,58.4,49z"/>
</g>
</svg>
