<svg id="Layer_1" data-name="Layer 1" xmlns="http://www.w3.org/2000/svg" xmlns:xlink="http://www.w3.org/1999/xlink" viewBox="0 0 116.64 131.32"><defs><style>.cls-1{fill:none;}.cls-2{fill:#f5f5f5;}.cls-3{fill:#e0e0e0;}.cls-13,.cls-4{fill:#fff;}.cls-5{fill:#ebebeb;}.cls-6{fill:#fafafa;}.cls-7{fill:#263238;}.cls-8{fill:#455a64;}.cls-9{fill:#b78876;}.cls-10{fill:#51bb75;}.cls-11{fill:#aa6550;}.cls-12{opacity:0.4;}.cls-12,.cls-13,.cls-14,.cls-15,.cls-16,.cls-17{isolation:isolate;}.cls-13,.cls-15{opacity:0.2;}.cls-14,.cls-16{opacity:0.3;}.cls-18{clip-path:url(#clip-path);}.cls-19{clip-path:url(#clip-path-2);}.cls-20{clip-path:url(#clip-path-3);}.cls-21{clip-path:url(#clip-path-4);}.cls-22{clip-path:url(#clip-path-5);}.cls-23{clip-path:url(#clip-path-6);}.cls-24{opacity:0.3;}.cls-25{clip-path:url(#clip-path-7);}.cls-26{clip-path:url(#clip-path-8);}.cls-27{clip-path:url(#clip-path-9);}.cls-28{clip-path:url(#clip-path-10);}.cls-29{clip-path:url(#clip-path-11);}.cls-30{clip-path:url(#clip-path-12);}.cls-31{clip-path:url(#clip-path-13);}.cls-32{clip-path:url(#clip-path-14);}</style><clipPath id="clip-path"><polygon id="SVGID" class="cls-1" points="78.13 39.62 84.21 30.77 93.28 34.09 87.2 42.94 78.13 39.62"/></clipPath><clipPath id="clip-path-2"><polygon id="SVGID-2" data-name="SVGID" class="cls-1" points="77.73 39.46 83.81 30.61 92.89 33.92 86.8 42.77 77.73 39.46"/></clipPath><clipPath id="clip-path-3"><rect id="SVGID-3" data-name="SVGID" class="cls-1" x="24.03" y="23.08" width="18.75" height="17.34" transform="matrix(0.04, -1, 1, 0.04, 0.42, 63.94)"/></clipPath><clipPath id="clip-path-4"><polyline id="SVGID-4" data-name="SVGID" class="cls-1" points="27.12 22.13 42.35 24.45 39.69 41.37 24.45 39.05 27.12 22.13"/></clipPath><clipPath id="clip-path-5"><polyline id="SVGID-5" data-name="SVGID" class="cls-1" points="27.05 22.51 41.86 24.36 39.75 40.99 24.94 39.13 27.05 22.51"/></clipPath><clipPath id="clip-path-6"><polyline id="SVGID-6" data-name="SVGID" class="cls-1" points="30.99 23.07 40.53 30.94 35.3 40.43 25.78 32.55 30.99 23.07"/></clipPath><clipPath id="clip-path-7"><polyline id="SVGID-7" data-name="SVGID" class="cls-1" points="31.51 23.07 41.02 30.94 35.82 40.42 26.28 32.55 31.51 23.07"/></clipPath><clipPath id="clip-path-8"><polygon id="SVGID-8" data-name="SVGID" class="cls-1" points="26.17 71.64 15.84 65.62 20.84 58.3 31.18 64.32 26.17 71.64"/></clipPath><clipPath id="clip-path-9"><polyline id="SVGID-9" data-name="SVGID" class="cls-1" points="24.83 70.86 16.17 65.14 22.19 59.08 30.85 64.8 24.83 70.86"/></clipPath><clipPath id="clip-path-10"><polyline id="SVGID-10" data-name="SVGID" class="cls-1" points="24.54 70.66 16.4 64.91 22.48 59.28 30.61 65.03 24.54 70.66"/></clipPath><clipPath id="clip-path-11"><polyline id="SVGID-11" data-name="SVGID" class="cls-1" points="17.1 64.25 23.24 59.81 29.92 65.69 23.78 70.12 17.1 64.25"/></clipPath><clipPath id="clip-path-12"><polyline id="SVGID-12" data-name="SVGID" class="cls-1" points="17.26 64.39 23.05 59.96 29.76 65.55 23.97 69.98 17.26 64.39"/></clipPath><clipPath id="clip-path-13"><polyline id="SVGID-13" data-name="SVGID" class="cls-1" points="18.79 63.3 25.63 62.42 28.08 66.83 21.24 67.71 18.79 63.3"/></clipPath><clipPath id="clip-path-14"><polyline id="SVGID-14" data-name="SVGID" class="cls-1" points="18.93 63.1 25.78 62.23 28.23 66.65 21.39 67.52 18.93 63.1"/></clipPath></defs><title>SVG Polylogo</title><polygon class="cls-2" points="41.09 116.31 9.04 14.27 101.45 14.27 77.12 116.31 41.09 116.31"/><path class="cls-3" d="M40.77,116.31s17.82-10.83,36,0Z"/><path class="cls-4" d="M44.07,110.07c0-.18-2.15-7-2.15-7l-1.86.78,1-6.19,4.5,4.21-1.78.64,2.4,7.08Z"/><path class="cls-4" d="M79.47,69.49c.09-.16,1.53-7.14,1.53-7.14l-2-.23,3.9-4.91,1.87,5.87-1.87-.3-1.36,7.34Z"/><path class="cls-4" d="M25.52,51.85c0-.18-3.05-6.63-3.05-6.63l-1.75,1L20.9,40l5,3.58-1.67.88,3.32,6.69Z"/><circle class="cls-3" cx="92.83" cy="75.81" r="12.53"/><circle class="cls-5" cx="91.77" cy="74.73" r="12.53"/><ellipse class="cls-2" cx="91.67" cy="74.63" rx="9.54" ry="9.31" transform="translate(-19.85 35.43) rotate(-19.78)"/><path class="cls-6" d="M94.81,83.34A9.54,9.54,0,0,1,82.7,77.86l.09.26a9.54,9.54,0,0,0,18-6.21l-.09-.26a2.6,2.6,0,0,0-.1-.25A9.54,9.54,0,0,1,94.81,83.34Z"/><path class="cls-3" d="M88.54,65.9a9.53,9.53,0,0,1,12.1,5.49,2.41,2.41,0,0,0-.08-.25,9.54,9.54,0,0,0-18,6.46h0c0,.08.07.16.1.25A9.54,9.54,0,0,1,88.54,65.9Z"/><circle class="cls-3" cx="26.53" cy="93.82" r="8.83"/><circle class="cls-5" cx="26.7" cy="92.77" r="8.83"/><ellipse class="cls-2" cx="26.73" cy="92.66" rx="6.56" ry="6.73" transform="translate(-64.89 62.58) rotate(-55.73)"/><path class="cls-6" d="M23.05,98.07a6.73,6.73,0,0,1-1.88-9.19l-.11.16a6.73,6.73,0,0,0,11.12,7.57l.11-.16A6.73,6.73,0,0,1,23.05,98.07Z"/><path class="cls-3" d="M30.41,87.26a6.74,6.74,0,0,1,1.88,9.19l.11-.15a6.73,6.73,0,0,0-11.12-7.58l-.11.16A6.73,6.73,0,0,1,30.41,87.26Z"/><circle class="cls-3" cx="63.66" cy="26.94" r="6.86"/><circle class="cls-5" cx="63.63" cy="26.11" r="6.86"/><ellipse class="cls-2" cx="63.62" cy="26.03" rx="5.1" ry="5.23" transform="translate(15.62 75.24) rotate(-67.96)"/><path class="cls-6" d="M61.72,30.73a5.23,5.23,0,0,1-2.94-6.66l-.06.14a5.23,5.23,0,0,0,9.69,3.92.78.78,0,0,0,0-.14A5.21,5.21,0,0,1,61.72,30.73Z"/><path class="cls-3" d="M65.53,21.32A5.22,5.22,0,0,1,68.46,28l.06-.14a5.23,5.23,0,0,0-9.69-3.92.78.78,0,0,1,0,.14A5.23,5.23,0,0,1,65.53,21.32Z"/><path class="cls-7" d="M99.56,116.31s-18.86.06-42.12.06-42.1,0-42.1-.06,18.86,0,42.11,0S99.56,116.28,99.56,116.31Z"/><path class="cls-8" d="M57,34.64c0,.08-1.77,5.11-1.77,5.11l-2.62-1.38,1.31-4.18Z"/><polygon class="cls-7" points="55.18 39.75 55.47 39.78 57.23 34.67 56.91 34.63 55.18 39.75"/><path class="cls-7" d="M55.16,35a.14.14,0,0,1-.16.07h0a.14.14,0,0,1,0-.18.11.11,0,0,1,.18.11Z"/><path class="cls-9" d="M52.19,37.29s0,0,0,0h0l.81-.83a1.18,1.18,0,0,1,.89-.35l.46,0a.83.83,0,0,1,.79.86V37l-.09.63a.22.22,0,0,1-.22.19H53.62l-.18.22Z"/><path class="cls-10" d="M61.38,42.38a3.3,3.3,0,0,0,1.36.14,3.89,3.89,0,0,1,1.36.12,1.25,1.25,0,0,1,.9.94c0,.39-.14.78-.07,1.16s.42.76.32,1.15a.91.91,0,0,1-.79.56A3,3,0,0,1,61,44.06a3.09,3.09,0,0,1,.14-1.62"/><path d="M62.1,43.49,63,44a1.3,1.3,0,0,0,.42.18.51.51,0,0,0,.43-.09.7.7,0,0,0,.13-.56,1.14,1.14,0,0,0-.15-.6,1,1,0,0,0-.92-.31,3.15,3.15,0,0,0-1,.24"/><path class="cls-7" d="M71.84,42.15a5.06,5.06,0,0,0-2.93-1.53L66.45,40a4,4,0,0,0-1.54-.21,1.63,1.63,0,0,0-.37.08,6.62,6.62,0,0,0,.24-.62,1.34,1.34,0,0,0-.52-1.78c-.56-.44-1.15-1.11-1.85-1.2a1.86,1.86,0,0,0-1.75.82l.05.41a3.26,3.26,0,0,1,1.45-1.1A6.62,6.62,0,0,0,63.54,39a.54.54,0,0,1,.15.15.41.41,0,0,1-.08.37,4.87,4.87,0,0,0-.45,1,5.75,5.75,0,0,0-.31,1.59.93.93,0,0,0,.31.93,2.42,2.42,0,0,0,1,.46,4.11,4.11,0,0,1,1.08.34,1.74,1.74,0,0,1,.88,1.56.67.67,0,0,0,.45-.63l.57.44a2.55,2.55,0,0,0,0-1.1c.26.19.51.39.78.57a2.64,2.64,0,0,0,2.08.54l0-.57,1.18.81a1.6,1.6,0,0,0,.26-1.52l.6.65A2.43,2.43,0,0,0,71.84,42.15Z"/><path class="cls-7" d="M62.37,35.9a1.63,1.63,0,0,1,2.3.08l0,0c.25.29.38.67.65.94.87.88,2.59.1,3.49,1,.63.6.53,1.74,1.23,2.26s1.64.22,2.19.77a1.86,1.86,0,0,1,.41.86,2.43,2.43,0,0,0,.37.88.73.73,0,0,0,.85.25.76.76,0,0,1-.64.81,2.55,2.55,0,0,1-1.13-.16A1.91,1.91,0,0,0,71,43.52c-.48.18-.76.73-1.24.92a1.35,1.35,0,0,1-1.28-.26,4.64,4.64,0,0,1-.88-1,3.21,3.21,0,0,0-1-1A3.36,3.36,0,0,0,65,41.82a3.65,3.65,0,0,1-1.67-.3,1.21,1.21,0,0,1-.67-1.41"/><path class="cls-7" d="M62.51,41.82a.22.22,0,0,0,.24.19.56.56,0,0,0,.3-.12A5.74,5.74,0,0,0,64.87,40a2.82,2.82,0,0,0,.47-2.1,2.21,2.21,0,0,0-.66-1,4.33,4.33,0,0,0-1-.68,2.57,2.57,0,0,0-1.2-.35,2.17,2.17,0,0,0-2.14,2.17"/><path class="cls-9" d="M64.45,38.15a7.38,7.38,0,0,1-1.13.82l-.48.9a1,1,0,0,0,.39,1.38h0l-1.5,3c-.34.62-2.11.55-2.78.17h0c-.67-.38-.14-1,.22-1.6a9.64,9.64,0,0,0,.72-1.39,1.6,1.6,0,0,1-.37-1.83,13.68,13.68,0,0,1,1.18-2.24c.4-.66,1.09-1.35,1.74-.92Z"/><path class="cls-7" d="M60.64,38.06a.17.17,0,0,0,.06.22.16.16,0,0,0,.22,0h0a.16.16,0,0,0-.28-.17Z"/><path class="cls-7" d="M60.64,37.89s.16,0,.32.09.22.22.25.22,0-.05,0-.11A.44.44,0,0,0,61,37.9a.4.4,0,0,0-.26,0C60.67,37.86,60.63,37.88,60.64,37.89Z"/><path class="cls-7" d="M62.11,38.94a.17.17,0,0,0,.07.22.16.16,0,0,0,.21,0h0a.15.15,0,0,0-.06-.22.14.14,0,0,0-.21,0Z"/><path class="cls-7" d="M62.16,38.74s.16,0,.31.09.22.22.26.22,0,0,0-.11a.44.44,0,0,0-.46-.24C62.19,38.7,62.15,38.72,62.16,38.74Z"/><path class="cls-7" d="M61,39.59a1.3,1.3,0,0,0-.23-.18s-.07,0-.07-.08a.39.39,0,0,1,.09-.11l.28-.23a7.23,7.23,0,0,0,.69-.66,7.09,7.09,0,0,0-.74.59l-.27.25a.33.33,0,0,0-.11.15.11.11,0,0,0,0,.09l.06.05A1.26,1.26,0,0,0,61,39.59Z"/><path class="cls-11" d="M59.89,41.38a3.21,3.21,0,0,0,1.72.4,1.61,1.61,0,0,1-1.85-.13Z"/><path class="cls-11" d="M60.84,40a.34.34,0,0,1,.31,0,.26.26,0,0,1,.12.19.18.18,0,0,1-.08.2.24.24,0,0,1-.23-.06.74.74,0,0,1-.14-.22.19.19,0,0,1,0-.07.07.07,0,0,1,0-.06"/><path class="cls-7" d="M61.38,39.94a.72.72,0,0,1-.32.2,1,1,0,0,1-.39,0,.2.2,0,0,0,.1.1.5.5,0,0,0,.32.05.41.41,0,0,0,.26-.17A.33.33,0,0,0,61.38,39.94Z"/><path class="cls-7" d="M62.23,38.43s.16.11.33.23.29.25.34.22,0-.07,0-.14a.8.8,0,0,0-.22-.23.64.64,0,0,0-.3-.11C62.29,38.39,62.23,38.4,62.23,38.43Z"/><path class="cls-7" d="M61,37.48c0,.05.13.07.26.13s.22.15.27.13,0-.06,0-.12A.46.46,0,0,0,61,37.4C61,37.42,61,37.45,61,37.48Z"/><path class="cls-7" d="M62.39,36.26a2.54,2.54,0,0,0,.39,2,2.74,2.74,0,0,1,.46.73c.1.35,0,.74.13,1.07a1.27,1.27,0,0,0,1,.61,2.58,2.58,0,0,1,1.17.31c.46.33.65,1,1.19,1.16s1.23-.47,1.79-.22c.34.16.48.59.8.78a1.71,1.71,0,0,0,1.18,0,1.15,1.15,0,0,1,1.13.17"/><path class="cls-8" d="M71.65,42.87a.84.84,0,0,0-.47-.21,2.14,2.14,0,0,0-.62.06,2.82,2.82,0,0,1-.82.14.83.83,0,0,1-.48-.15,1.92,1.92,0,0,1-.36-.39,1,1,0,0,0-.4-.35A.83.83,0,0,0,68,42c-.2.05-.39.13-.6.19a1.09,1.09,0,0,1-.67,0,1.24,1.24,0,0,1-.55-.44c-.14-.18-.26-.38-.42-.55a1.17,1.17,0,0,0-.55-.34,3.82,3.82,0,0,0-.66-.12,2.31,2.31,0,0,1-.64-.16,1.12,1.12,0,0,1-.51-.4,1.25,1.25,0,0,1-.13-.6,2.51,2.51,0,0,0,0-.55,3.39,3.39,0,0,0-.52-.84,2.41,2.41,0,0,1-.33-1.8.65.65,0,0,1,0-.13,3.08,3.08,0,0,0,0,.53,2.54,2.54,0,0,0,.4,1.36,2.88,2.88,0,0,1,.54.86,2.69,2.69,0,0,1,0,.57,1,1,0,0,0,.12.54.91.91,0,0,0,.46.36,2.25,2.25,0,0,0,.62.15,3.93,3.93,0,0,1,.67.12,1.2,1.2,0,0,1,.61.38c.16.17.28.37.42.55a1.13,1.13,0,0,0,.49.4,1.06,1.06,0,0,0,.61,0c.2-.06.39-.14.6-.19a.86.86,0,0,1,.61,0,1.16,1.16,0,0,1,.44.38,1.75,1.75,0,0,0,.34.38.76.76,0,0,0,.43.14,2.84,2.84,0,0,0,.81-.12,1.9,1.9,0,0,1,.63,0,.85.85,0,0,1,.37.15Z"/><path class="cls-8" d="M71.84,41.36l-.12,0a2.21,2.21,0,0,1-2.22-.82,2.62,2.62,0,0,0-.69-.68,2.07,2.07,0,0,0-1-.16,7.9,7.9,0,0,1-1.19,0,1.72,1.72,0,0,1-.59-.16,1,1,0,0,1-.46-.39,8.25,8.25,0,0,1-.37-1,.83.83,0,0,0-.32-.35,1.76,1.76,0,0,0-.44-.15,3.53,3.53,0,0,1-.84-.25,1.83,1.83,0,0,1-.84-.92,1.89,1.89,0,0,1-.09-.34v-.12a3.22,3.22,0,0,0,.14.44,1.84,1.84,0,0,0,.84.88,3.31,3.31,0,0,0,.82.22,2,2,0,0,1,.47.16,1,1,0,0,1,.37.39c.16.33.17.72.36,1a1.27,1.27,0,0,0,1,.49,7.64,7.64,0,0,0,1.17,0,2.1,2.1,0,0,1,1.1.18,2.56,2.56,0,0,1,.71.72,2.21,2.21,0,0,0,.62.56,2.35,2.35,0,0,0,1.18.32C71.68,41.4,71.83,41.35,71.84,41.36Z"/><path class="cls-10" d="M62.07,43.5a5.42,5.42,0,0,1,1.72,1.32c.32.07,4.07,4,5.67,5.75a2.23,2.23,0,0,1,.46,2.31,2.28,2.28,0,0,1-2.45,1.41l-5.34-.72.37-2.74L66,51.3,62.1,47.89a83.65,83.65,0,0,1-5.87,7.76l-5.11-5.58,3-2.45,1.15-2.87c-1-.11-5.42.48-6.3-.75s2.75-7,2.75-7l1.76,1.13L52,41.9s2.76-.15,4.89-.11a4.51,4.51,0,0,1,1.26.22l1.25.39,0,.13a1.27,1.27,0,0,0,1.38,1.1Z"/><path class="cls-7" d="M56.17,53.08a1.54,1.54,0,0,1-.36-.36,6.93,6.93,0,0,1-.69-1,6.19,6.19,0,0,1-.56-1.36l0,0a.72.72,0,0,1,.07.25.94.94,0,0,1-.12-.22l0,0a10.39,10.39,0,0,0,.61,1.31C55.68,52.48,56.2,53.05,56.17,53.08Z"/><path class="cls-7" d="M57,50.13a1.62,1.62,0,0,1-.41-.22,9,9,0,0,1-.9-.66c-.35-.27-.65-.52-.86-.72a1.44,1.44,0,0,1-.32-.33s.56.44,1.25,1S57,50.1,57,50.13Z"/><path class="cls-7" d="M58.93,49.24a2.76,2.76,0,0,1-.64,0,7.48,7.48,0,0,1-2.92-1.08,2.83,2.83,0,0,1-.52-.39s.22.13.56.32a9.39,9.39,0,0,0,1.4.66,10,10,0,0,0,1.49.41A6.38,6.38,0,0,1,58.93,49.24Z"/><path class="cls-7" d="M65.19,46.28c-.13-.15-.26-.31-.38-.48a8,8,0,0,0-1-1.09,8.57,8.57,0,0,0-1.19-.89,5.69,5.69,0,0,1-.52-.33,2.2,2.2,0,0,1,.56.26,7,7,0,0,1,2.23,2A2.17,2.17,0,0,1,65.19,46.28Z"/><path class="cls-6" d="M65.37,46.47l-.11,0-.34.07-.54.1c-.22,0-.44.09-.72.12a1.89,1.89,0,0,1-.88-.12,1.73,1.73,0,0,1-.41-.3,2.59,2.59,0,0,1-.32-.42c-.2-.31-.36-.65-.59-1a2,2,0,0,0-.42-.39,1.47,1.47,0,0,0-.54-.2,3.89,3.89,0,0,0-1.18,0,3.89,3.89,0,0,1-1.13,0,2.84,2.84,0,0,1-1.65-.93,2.71,2.71,0,0,1-.6-1.12,2.14,2.14,0,0,1-.06-.35.24.24,0,0,1,0-.12s0,.17.1.45a2.84,2.84,0,0,0,.63,1.09,2.76,2.76,0,0,0,1.6.87,3.62,3.62,0,0,0,1.09,0,4.16,4.16,0,0,1,1.22,0,1.52,1.52,0,0,1,.58.22,1.6,1.6,0,0,1,.44.42,7.7,7.7,0,0,1,.59,1,2.45,2.45,0,0,0,.31.41,1.49,1.49,0,0,0,.38.28,1.6,1.6,0,0,0,.84.13c.26,0,.5-.07.71-.1l.55-.08.34-.05Z"/><path class="cls-6" d="M54,44.72a1.66,1.66,0,0,1-.48-.19,2.45,2.45,0,0,1-.92-.86,1.68,1.68,0,0,1-.18-1.24,1.23,1.23,0,0,1,.16-.35c.05-.07.09-.11.1-.1a2.07,2.07,0,0,0-.18.47,1.73,1.73,0,0,0,.2,1.16,2.59,2.59,0,0,0,.86.85C53.79,44.62,54,44.7,54,44.72Z"/><path class="cls-6" d="M61.63,48.55a2.46,2.46,0,0,1-.31,0,3.41,3.41,0,0,0-.84.19c-.2.06-.39.11-.59.15a1.65,1.65,0,0,1-.7,0A2.32,2.32,0,0,1,57.9,48c-.35-.45-.58-.93-.86-1.33a2.88,2.88,0,0,0-.87-.9,1.76,1.76,0,0,0-.8-.26c-.21,0-.32,0-.32,0l.08,0,.24,0a1.69,1.69,0,0,1,.84.23,2.86,2.86,0,0,1,.92.91c.29.4.53.88.86,1.32a2.26,2.26,0,0,0,1.23.87,2.5,2.5,0,0,0,1.24-.12,3.62,3.62,0,0,1,.86-.16l.24,0Z"/><path class="cls-6" d="M67,48.13l-.14-.07a.73.73,0,0,0-.41-.06,1.2,1.2,0,0,0-.57.24c-.2.17-.39.35-.58.54a1.79,1.79,0,0,1-.68.43,1.48,1.48,0,0,1-.66.06,1.21,1.21,0,0,1-.42-.13.42.42,0,0,1-.14-.09,3,3,0,0,0,.57.14,1.46,1.46,0,0,0,.62-.08,1.7,1.7,0,0,0,.64-.42,5.05,5.05,0,0,1,.6-.53,1.16,1.16,0,0,1,.62-.24.77.77,0,0,1,.44.1A.44.44,0,0,1,67,48.13Z"/><path class="cls-6" d="M70,52.49a7.22,7.22,0,0,0-.25-.71,1.62,1.62,0,0,0-.49-.61,1,1,0,0,0-.9-.22,3.59,3.59,0,0,0-.88.43,1.49,1.49,0,0,1-.79.26.72.72,0,0,1-.52-.21.25.25,0,0,1-.11-.17.83.83,0,0,0,.13.14.77.77,0,0,0,.5.16,1.42,1.42,0,0,0,.74-.27,3.33,3.33,0,0,1,.9-.46,1.21,1.21,0,0,1,1,.24,1.61,1.61,0,0,1,.5.66,2,2,0,0,1,.16.54A.53.53,0,0,1,70,52.49Z"/><path class="cls-6" d="M64,53.72a.6.6,0,0,0,.32-.22.63.63,0,0,0,.09-.4,1.8,1.8,0,0,0-.17-.51,2.47,2.47,0,0,1-.22-.53.84.84,0,0,1,0-.47.53.53,0,0,1,.19-.25c.07,0,.11-.05.11,0a.66.66,0,0,0-.22.32.75.75,0,0,0,0,.42,3.16,3.16,0,0,0,.22.5,1.53,1.53,0,0,1,.17.55.66.66,0,0,1-.12.45.45.45,0,0,1-.27.18A.2.2,0,0,1,64,53.72Z"/><path class="cls-6" d="M57.91,53.6a.86.86,0,0,0,0-.28.91.91,0,0,0-.33-.67,3.12,3.12,0,0,0-1.07-.48,2.47,2.47,0,0,1-.66-.3,1.7,1.7,0,0,1-.52-.58,5.89,5.89,0,0,1-.46-1.4,3,3,0,0,0-.46-1.08,1.54,1.54,0,0,0-.6-.5c-.17-.07-.28-.08-.28-.09h.08l.22.05a1.53,1.53,0,0,1,.66.49,3.12,3.12,0,0,1,.49,1.1,6.14,6.14,0,0,0,.46,1.37,1.8,1.8,0,0,0,.48.55,2.7,2.7,0,0,0,.62.29,3,3,0,0,1,1.1.51.91.91,0,0,1,.33.74.59.59,0,0,1,0,.22Z"/><path class="cls-6" d="M56.7,55.12a3.66,3.66,0,0,0-.44-.94,3.38,3.38,0,0,0-.79-.67.54.54,0,0,1,.3.1,2,2,0,0,1,.58.5,1.81,1.81,0,0,1,.33.7A.65.65,0,0,1,56.7,55.12Z"/><path class="cls-6" d="M52.26,42l-.14,0a.79.79,0,0,0-.38.09,10.51,10.51,0,0,0-1.1.77,2.55,2.55,0,0,1-.68.34,1.62,1.62,0,0,1-.62.06,1.11,1.11,0,0,1-.4-.13c-.09,0-.12-.09-.12-.1a1.61,1.61,0,0,0,.53.15,2,2,0,0,0,1.23-.41A8.94,8.94,0,0,1,51.71,42a.64.64,0,0,1,.41-.05A.24.24,0,0,1,52.26,42Z"/><path class="cls-6" d="M52.39,40.68a.19.19,0,0,0,0-.08.36.36,0,0,0-.24-.09,3.71,3.71,0,0,1-.94,0,1.16,1.16,0,0,1-.51-.18.92.92,0,0,1-.3-.32.5.5,0,0,1-.08-.39,2.17,2.17,0,0,0,.15.35,1.08,1.08,0,0,0,.75.43,2.18,2.18,0,0,0,.51,0c.15,0,.29,0,.42,0a.36.36,0,0,1,.27.15A.1.1,0,0,1,52.39,40.68Z"/><path d="M62,47.93c.33-1-1.21,1.67-2,2.3a4.92,4.92,0,0,0-1.06.93A3.9,3.9,0,0,0,58.42,53S61.82,48.57,62,47.93Z"/><path class="cls-10" d="M40.92,69.85,41,68.3l2.91.17-.12,2.27h-.19A34.82,34.82,0,0,1,39,70.48C38.41,70.27,40.92,69.85,40.92,69.85Z"/><path d="M42.75,70.65a1,1,0,0,1,1.1-.77l-.05.82Z"/><path class="cls-12" d="M39.69,70.1s-.87.2-.78.35a29.46,29.46,0,0,0,4.9.29v-.07l-3.88-.19S39.86,70.11,39.69,70.1Z"/><path class="cls-7" d="M43.84,70.67h-.72c-.44,0-1.07,0-1.76-.06s-1.29-.09-1.75-.13l-.53,0-.14,0h.14l.53,0,1.76.12,1.75.08h.72Z"/><path class="cls-7" d="M39.93,70.53a.79.79,0,0,0-.26-.47.39.39,0,0,1,.2.2A.43.43,0,0,1,39.93,70.53Z"/><path class="cls-7" d="M40.81,70.14a.31.31,0,0,1-.08-.11c0-.07-.07-.13-.06-.14a.36.36,0,0,1,.09.12A.69.69,0,0,1,40.81,70.14Z"/><path class="cls-7" d="M41.05,70A.33.33,0,0,1,41,70s-.08-.09-.07-.1,0,0,.1.07S41.06,70,41.05,70Z"/><path class="cls-7" d="M41.21,69.77a.42.42,0,0,1-.15,0,.43.43,0,0,1-.15,0,.38.38,0,0,1,.15,0A.39.39,0,0,1,41.21,69.77Z"/><path class="cls-7" d="M41.28,69.57a.26.26,0,0,1-.17.05.39.39,0,0,1-.18,0h.35Z"/><path class="cls-7" d="M40.73,69.88a.6.6,0,0,1-.19,0l-.2,0-.11-.06a.07.07,0,0,1,0,0,.08.08,0,0,1,0-.08.35.35,0,0,1,.42.13.43.43,0,0,1,0,.12.06.06,0,0,1,0,.06.51.51,0,0,0-.07-.17.36.36,0,0,0-.16-.11.28.28,0,0,0-.22,0s0,0,0,.08l.11,0,.19.06Z"/><path class="cls-7" d="M40.68,69.89a.2.2,0,0,1,0-.13.26.26,0,0,1,.06-.13.19.19,0,0,1,.16-.09.09.09,0,0,1,.06.09.2.2,0,0,1,0,.08.52.52,0,0,1-.1.11.21.21,0,0,1-.11.07l.1-.09a.44.44,0,0,0,.08-.11s.05-.1,0-.12-.09,0-.12.08a.35.35,0,0,0-.07.12Z"/><path class="cls-7" d="M43.84,69.87a1.25,1.25,0,0,0-.22,0,.9.9,0,0,0-.79.57c0,.12-.06.2-.07.2v-.06a.83.83,0,0,1,0-.15.86.86,0,0,1,.82-.58h.22Z"/><path class="cls-7" d="M43.6,68.65a3,3,0,0,1,0,.6,3.81,3.81,0,0,1,0,.59,5.8,5.8,0,0,1,0-.59C43.56,69.05,43.58,68.85,43.6,68.65Z"/><path class="cls-7" d="M42.4,70.35a1.61,1.61,0,0,1-.44,0,1.52,1.52,0,0,1-.42-.06s.19,0,.43,0Z"/><path class="cls-7" d="M43,70.38l0,.08s0,.08,0,.08,0,0,0-.09S43,70.37,43,70.38Z"/><path class="cls-7" d="M43.2,70.13a.17.17,0,0,1,0,.06l-.07,0s0,0,0-.07Z"/><path class="cls-7" d="M43.52,70l-.09,0-.08,0s0,0,.07-.06S43.52,70,43.52,70Z"/><path class="cls-7" d="M43.74,70l0,0h-.05s0,0,0,0S43.74,70,43.74,70Z"/><path class="cls-10" d="M35.73,61.32,36.41,60l2.41,1.25-1,1.88-.15-.07a32.37,32.37,0,0,1-3.83-2C33.45,60.72,35.73,61.32,35.73,61.32Z"/><path d="M37,62.7a.93.93,0,0,1,.57-.35.9.9,0,0,1,.66.11l-.35.68Z"/><path class="cls-12" d="M34.6,61.06s-.82-.16-.79,0a24.72,24.72,0,0,0,4,2.11l0-.05-3.22-1.64S34.74,61.14,34.6,61.06Z"/><path class="cls-7" d="M37.92,63.14l0,0-.12-.06-.44-.2-1.46-.73c-.56-.28-1.07-.56-1.43-.77L34,61.12l-.12-.07,0,0,0,0,.12.06.44.24,1.44.76c.56.3,1.08.55,1.45.73l.44.22.12.07Z"/><path class="cls-7" d="M34.63,61.52a1,1,0,0,0,0-.25A.94.94,0,0,0,34.6,61a.34.34,0,0,1,.09.24A.32.32,0,0,1,34.63,61.52Z"/><path class="cls-7" d="M35.53,61.53a.31.31,0,0,1,0-.13.33.33,0,0,1,0-.14.63.63,0,0,1,0,.27Z"/><path class="cls-7" d="M35.78,61.53a.39.39,0,0,1-.05-.1.26.26,0,0,1,0-.11l.06.09C35.78,61.47,35.79,61.52,35.78,61.53Z"/><path class="cls-7" d="M36,61.36l-.13,0-.12-.08s.06,0,.13,0S36,61.35,36,61.36Z"/><path class="cls-7" d="M36.15,61.23a.29.29,0,0,1-.16,0,.25.25,0,0,1-.14-.09l.15.06Z"/><path class="cls-7" d="M35.56,61.28a.38.38,0,0,1-.15-.09.44.44,0,0,1-.15-.12L35.18,61a.17.17,0,0,1,0-.07.06.06,0,0,1,.06-.05.32.32,0,0,1,.31.26v.13a.08.08,0,0,1,0,.05.48.48,0,0,0,0-.17.51.51,0,0,0-.09-.16.27.27,0,0,0-.19-.08s0,0,0,.07a.27.27,0,0,0,.07.08.8.8,0,0,0,.13.13Z"/><path class="cls-7" d="M35.51,61.26a.15.15,0,0,1,0-.11.22.22,0,0,1,.1-.09.17.17,0,0,1,.17,0,.07.07,0,0,1,0,.1l-.06,0a.34.34,0,0,1-.12.06.25.25,0,0,1-.12,0l.11,0,.11-.06s.08-.07,0-.1a.17.17,0,0,0-.14,0,.34.34,0,0,0-.09.08A.47.47,0,0,0,35.51,61.26Z"/><path class="cls-7" d="M38.21,62.45a1.16,1.16,0,0,0-.19-.08.86.86,0,0,0-.89.17,1.12,1.12,0,0,0-.13.15s0,0,0,0a.52.52,0,0,1,.1-.11.77.77,0,0,1,.44-.24.78.78,0,0,1,.61.13Z"/><path class="cls-7" d="M38.48,61.32q-.1.26-.24.51l-.26.49a2.94,2.94,0,0,1,.23-.51A4.67,4.67,0,0,1,38.48,61.32Z"/><path class="cls-7" d="M36.81,62.31a1.2,1.2,0,0,1-.37-.15,1.52,1.52,0,0,1-.34-.22l.35.18A3.37,3.37,0,0,1,36.81,62.31Z"/><path class="cls-7" d="M37.28,62.55l-.07.06-.06,0s0,0,0-.08A.19.19,0,0,1,37.28,62.55Z"/><path class="cls-7" d="M37.57,62.42a.11.11,0,0,1-.06,0s-.07,0-.08,0l.07,0A.14.14,0,0,1,37.57,62.42Z"/><path class="cls-7" d="M37.88,62.46l-.08,0a.1.1,0,0,0-.08,0,.09.09,0,0,1,.08,0C37.86,62.42,37.88,62.45,37.88,62.46Z"/><path class="cls-7" d="M38.08,62.51h0l0,0s0,0,0,0S38.09,62.49,38.08,62.51Z"/><path class="cls-4" d="M45.93,51.16A1,1,0,0,1,45,52.32a1.06,1.06,0,0,1-1.16-.92,1,1,0,0,1,.93-1.16,1,1,0,0,1,1.15.92Z"/><path class="cls-4" d="M41.85,56.41a.37.37,0,0,1-.34.38.36.36,0,0,1-.37-.29.36.36,0,0,1,.7-.14A.11.11,0,0,1,41.85,56.41Z"/><path class="cls-7" d="M55.56,54.85h0l-4.35-4.67s-9.81-1.68-10.57-.63-5,11.48-5,11.48l3,1.46,1.61-3.19c.11,3.69.54,10.11.54,10.11h3.32l.15-9.8,8.77-1.42a4.69,4.69,0,0,0,3.16-2.54Zm-13.49.94,1-2,4,.36c-1.83.53-3.76,1.14-5.09,1.69Z"/><path class="cls-8" d="M52.07,52.53a5,5,0,0,1-.71.58,4.26,4.26,0,0,1-.75.5,5.45,5.45,0,0,1,.7-.57A4.21,4.21,0,0,1,52.07,52.53Z"/><path class="cls-8" d="M54,53.94a2.2,2.2,0,0,0-.12.32,1,1,0,0,0,.72,1.23h0c.21,0,.34,0,.34,0a.59.59,0,0,1-.35,0,1.06,1.06,0,0,1-.71-.47,1.07,1.07,0,0,1-.1-.84A.61.61,0,0,1,54,53.94Z"/><path class="cls-8" d="M50.14,53.54h0l-.13,0-.47.12-1.76.44c-1.47.43-3.51,1-5.74,1.65a3.64,3.64,0,0,0-.76.39,2.48,2.48,0,0,0-.64.52,1.55,1.55,0,0,0-.31.72,3.23,3.23,0,0,0,0,.76c.07,1,.13,1.92.17,2.68s.07,1.39.07,1.81c0,.22,0,.39,0,.5a.45.45,0,0,1,0,.13v0a.48.48,0,0,1,0-.17v-.5c0-.43,0-1-.1-1.8s-.11-1.67-.19-2.68a3.46,3.46,0,0,1,0-.79,1.86,1.86,0,0,1,.32-.75,2.44,2.44,0,0,1,.66-.54,4.79,4.79,0,0,1,.78-.4c1.12-.34,2.19-.64,3.16-.91l2.6-.71c.74-.2,1.34-.33,1.75-.43l.48-.1.13,0Z"/><path class="cls-8" d="M43.43,59.2a8,8,0,0,1,.82.29A1.28,1.28,0,0,1,43.43,59.2Z"/><path class="cls-8" d="M43.67,58.69A1.78,1.78,0,0,1,44,59a1.33,1.33,0,0,1,.25.41,2.48,2.48,0,0,1-.57-.76Z"/><path class="cls-8" d="M42.45,52.93a2.59,2.59,0,0,1,.32.42,3.41,3.41,0,0,1,.3.44,1.84,1.84,0,0,1-.62-.86Z"/><path class="cls-8" d="M43,52.72a1.63,1.63,0,0,1,.12.53,2,2,0,0,1,0,.54,1.52,1.52,0,0,1-.12-.53A1.94,1.94,0,0,1,43,52.72Z"/><path class="cls-8" d="M52.12,53s0-.06,0-.15a.15.15,0,0,1,.17,0,.17.17,0,0,1,.11.22.19.19,0,0,1-.17.12.2.2,0,0,1-.16-.09c0-.1,0-.16,0-.15s0,.06,0,.11a.1.1,0,0,0,.09.05.11.11,0,0,0,.1-.11.1.1,0,0,0-.06-.08.09.09,0,0,0-.1,0C52.13,53,52.14,53,52.12,53Z"/><path class="cls-8" d="M49.72,50.46a1.58,1.58,0,0,0,0,.31.86.86,0,0,0,.9.81l.1,0,.3-.08a.47.47,0,0,1-.28.14A.88.88,0,0,1,49.67,51a1.23,1.23,0,0,1,0-.2A.51.51,0,0,1,49.72,50.46Z"/><path class="cls-10" d="M51.11,50a2.8,2.8,0,0,1,.22-.95,1.19,1.19,0,0,1,.69-.65c.6-.2,1.22.28,1.59.8a11.19,11.19,0,0,1,1.13,2.69,4.85,4.85,0,0,0,1.55,2.43"/><path d="M51.11,50a2.8,2.8,0,0,1,.22-.95,1.19,1.19,0,0,1,.69-.65c.6-.2,1.22.28,1.59.8a11.19,11.19,0,0,1,1.13,2.69c.32.92,1.25,2.18,1.06,3.31"/><polygon class="cls-9" points="51.12 50.07 52.33 49.59 55.25 53.48 55.54 54.28 56.23 55.65 51.12 50.07"/><path class="cls-9" d="M62.28,53c-.61,0-1.78,0-2.15-.06-.76-.1-.75-.17-.72-.26s1.34.13,1.12-.11-1.61-.26-1.53-.5,1.44.09,1.56.12.15-.14,0-.16-1.73-.33-1.62-.64.35,0,.35,0,1.46.39,1.5.24-.8-.41-1.09-.47-.38-.22-.24-.34a5.05,5.05,0,0,1,1.28.19c.28.07,1.07.29.77-.13a1.26,1.26,0,0,1-.31-1,.16.16,0,0,1,.22,0,.2.2,0,0,1,.08.12,1.68,1.68,0,0,0,.22.47,1.35,1.35,0,0,0,.26.32l.51.4Z"/><path class="cls-10" d="M99.17,23.38s-6-2.4-19.37,11c0,0-13.9,11.95-6.47,17,6.33,4.28,14.67-1.84,19.08-5.85a44.42,44.42,0,0,0,6.66-7.88C102.11,32.88,103.92,26.66,99.17,23.38Z"/><path class="cls-12" d="M99.17,23.38s-6-2.4-19.37,11c0,0-13.9,11.95-6.47,17,6.33,4.28,14.67-1.84,19.08-5.85a44.42,44.42,0,0,0,6.66-7.88C102.11,32.88,103.92,26.66,99.17,23.38Z"/><path class="cls-10" d="M98.71,23.21s-7.45-4.13-20.83,9.23c0,0-12.91,13.76-5,18.08,5.39,2.95,13.25-3,17.65-7a47.22,47.22,0,0,0,7.13-8C100.67,30.83,102.36,25.53,98.71,23.21Z"/><ellipse class="cls-13" cx="85.58" cy="36.87" rx="14.94" ry="5.83" transform="translate(-1.01 71.31) rotate(-45)"/><path class="cls-6" d="M97.85,22.9s-.58-.09-1.63-.14a15.56,15.56,0,0,0-4.4.48,19.87,19.87,0,0,0-2.9,1,23.08,23.08,0,0,0-3.1,1.66A44.16,44.16,0,0,0,79.51,31,31.77,31.77,0,0,0,71.1,42.82a9.15,9.15,0,0,0-.57,4.35l0,.36.08.32a2.68,2.68,0,0,1,.07.27,1.43,1.43,0,0,0,.08.22,1.85,1.85,0,0,1,.12.4,2.69,2.69,0,0,1-.19-.38,1.65,1.65,0,0,1-.09-.22c0-.08-.05-.17-.09-.27s-.06-.2-.09-.32a3.06,3.06,0,0,1-.07-.37,8.91,8.91,0,0,1,.48-4.44,31,31,0,0,1,8.4-12,43.2,43.2,0,0,1,6.38-5.06A23.06,23.06,0,0,1,88.81,24a19.21,19.21,0,0,1,3-1,14.62,14.62,0,0,1,4.47-.38l.7.08.51.09A1.91,1.91,0,0,1,97.85,22.9Z"/><path class="cls-12" d="M74.71,47.07s-4-4.82,6-15,15.44-5.73,15.44-5.73-4.54-3.69-15,6.7C72.06,42.06,74.71,47.07,74.71,47.07Z"/><path class="cls-7" d="M79.78,52.64a.34.34,0,0,1-.06-.06l-.14-.16-.44-.57a5.54,5.54,0,0,1-.58-.85,3.84,3.84,0,0,1,.67.78A3.1,3.1,0,0,1,79.78,52.64Z"/><path class="cls-7" d="M76.55,52.64l0,0-.12-.14L76,52a3.26,3.26,0,0,1-.46-.7,2.77,2.77,0,0,1,.55.63A2.12,2.12,0,0,1,76.55,52.64Z"/><path class="cls-7" d="M82.43,52a5.46,5.46,0,0,1-.72-.87,6,6,0,0,1-.63-.95,6,6,0,0,1,.72.88A5.32,5.32,0,0,1,82.43,52Z"/><path class="cls-7" d="M84.88,50.87a7,7,0,0,1-.77-.94,6.71,6.71,0,0,1-.67-1,5.79,5.79,0,0,1,.76.94A6.08,6.08,0,0,1,84.88,50.87Z"/><path class="cls-7" d="M87.41,49.27a6.25,6.25,0,0,1-.76-.94,5.76,5.76,0,0,1-.68-1,7.7,7.7,0,0,1,.77.94A6.8,6.8,0,0,1,87.41,49.27Z"/><path class="cls-7" d="M89.69,47.57a5.75,5.75,0,0,1-.77-.94,6.37,6.37,0,0,1-.68-1,13,13,0,0,1,1.45,2Z"/><path class="cls-7" d="M92,45.87a7,7,0,0,1-.77-.94,6.71,6.71,0,0,1-.67-1,6.17,6.17,0,0,1,.76.93A6.62,6.62,0,0,1,92,45.87Z"/><path class="cls-7" d="M93.94,43.78a6.25,6.25,0,0,1-.76-.94,5.76,5.76,0,0,1-.68-1,12.07,12.07,0,0,1,1.44,2Z"/><path class="cls-7" d="M95.88,41.63a6.17,6.17,0,0,1-.76-.93,6.62,6.62,0,0,1-.68-1,6.32,6.32,0,0,1,.77.94A6,6,0,0,1,95.88,41.63Z"/><path class="cls-7" d="M97.78,39.43a7,7,0,0,1-.77-.94,6.71,6.71,0,0,1-.67-1,6.92,6.92,0,0,1,.77.93A6.8,6.8,0,0,1,97.78,39.43Z"/><path class="cls-7" d="M99.43,37.09a7,7,0,0,1-.77-.94,6.27,6.27,0,0,1-.66-1,7.7,7.7,0,0,1,.77.94A6.74,6.74,0,0,1,99.43,37.09Z"/><path class="cls-7" d="M100.88,34.38a5.84,5.84,0,0,1-.77-.94,6.77,6.77,0,0,1-.68-1,6.13,6.13,0,0,1,.77.93A6.62,6.62,0,0,1,100.88,34.38Z"/><path class="cls-7" d="M101.7,31.47a6.16,6.16,0,0,1-.69-.84,5.42,5.42,0,0,1-.6-.9,5,5,0,0,1,.69.83A4.62,4.62,0,0,1,101.7,31.47Z"/><path class="cls-7" d="M102.07,28.57a5,5,0,0,1-.69-.83,5.42,5.42,0,0,1-.6-.9,5,5,0,0,1,.69.83A5.42,5.42,0,0,1,102.07,28.57Z"/><circle class="cls-10" cx="32.78" cy="31.08" r="11.53"/><circle class="cls-13" cx="32.78" cy="31.08" r="11.53"/><path class="cls-7" d="M35.26,19.82a2.33,2.33,0,0,1,.39.59,2.07,2.07,0,0,1,.29.64,2.46,2.46,0,0,1-.39-.58A2.23,2.23,0,0,1,35.26,19.82Z"/><path class="cls-7" d="M37.15,20.45a2.08,2.08,0,0,1,.38.55,2.37,2.37,0,0,1,.27.61,1.84,1.84,0,0,1-.37-.55A2,2,0,0,1,37.15,20.45Z"/><path class="cls-7" d="M38.88,21.3a1.76,1.76,0,0,1,.37.56,1.88,1.88,0,0,1,.28.61,1.88,1.88,0,0,1-.37-.56A1.88,1.88,0,0,1,38.88,21.3Z"/><path class="cls-7" d="M33.26,19.55a2.46,2.46,0,0,1,.39.58,2.15,2.15,0,0,1,.28.64,2.53,2.53,0,0,1-.38-.58A2.07,2.07,0,0,1,33.26,19.55Z"/><path class="cls-7" d="M31.4,19.64a2,2,0,0,1,.38.57,2.18,2.18,0,0,1,.29.64,2.27,2.27,0,0,1-.39-.58A2.38,2.38,0,0,1,31.4,19.64Z"/><path class="cls-7" d="M29.57,20a2.22,2.22,0,0,1,.39.57,2,2,0,0,1,.28.62,2,2,0,0,1-.38-.57A2.07,2.07,0,0,1,29.57,20Z"/><path class="cls-7" d="M27.89,20.61a2.11,2.11,0,0,1,.39.58,2.38,2.38,0,0,1,.28.63,2.27,2.27,0,0,1-.39-.58A2.38,2.38,0,0,1,27.89,20.61Z"/><path class="cls-7" d="M26.28,21.53a2.22,2.22,0,0,1,.39.57,2.18,2.18,0,0,1,.29.64,2.11,2.11,0,0,1-.39-.58A2.12,2.12,0,0,1,26.28,21.53Z"/><path class="cls-7" d="M24.88,22.66a2.11,2.11,0,0,1,.39.58,2,2,0,0,1,.28.63,2.53,2.53,0,0,1-.38-.58A2.12,2.12,0,0,1,24.88,22.66Z"/><path class="cls-7" d="M23.77,23.84a2.46,2.46,0,0,1,.39.58,2.47,2.47,0,0,1,.29.64,2.27,2.27,0,0,1-.39-.58A2.18,2.18,0,0,1,23.77,23.84Z"/><path class="cls-7" d="M22.83,25.36a2.42,2.42,0,0,1,.4.6,2,2,0,0,1,.3.66,2.42,2.42,0,0,1-.4-.6A2.45,2.45,0,0,1,22.83,25.36Z"/><path class="cls-7" d="M22,27a2.42,2.42,0,0,1,.4.6,2.56,2.56,0,0,1,.3.65,2,2,0,0,1-.4-.59A2.45,2.45,0,0,1,22,27Z"/><path class="cls-7" d="M21.49,28.74a3,3,0,0,1,.43.58,2,2,0,0,1,.35.63,2.71,2.71,0,0,1-.44-.57A1.72,1.72,0,0,1,21.49,28.74Z"/><path class="cls-7" d="M21.26,30.69a2.73,2.73,0,0,1,.44.68,3.24,3.24,0,0,1,.34.73,2.68,2.68,0,0,1-.44-.67A2.92,2.92,0,0,1,21.26,30.69Z"/><path class="cls-7" d="M21.48,33.31A3.08,3.08,0,0,1,22,34a3.25,3.25,0,0,1,.38.77,3.24,3.24,0,0,1-.47-.71A3.13,3.13,0,0,1,21.48,33.31Z"/><circle class="cls-10" cx="33.58" cy="32.27" r="11.53"/><ellipse class="cls-13" cx="33.51" cy="32.16" rx="8.78" ry="8.57" transform="translate(-2.62 2.97) rotate(-4.89)"/><path class="cls-6" d="M34.24,40.65a8.77,8.77,0,0,1-9.47-7.74,2.18,2.18,0,0,0,0,.25,8.78,8.78,0,1,0,17.5-1.5,2.13,2.13,0,0,0,0-.25A8.77,8.77,0,0,1,34.24,40.65Z"/><path class="cls-14" d="M32.79,23.66a8.77,8.77,0,0,1,9.47,7.75,1,1,0,0,0,0-.25,8.78,8.78,0,1,0-17.49,1.49,2,2,0,0,0,0,.25A8.77,8.77,0,0,1,32.79,23.66Z"/><circle class="cls-10" cx="59.99" cy="87.76" r="19.09"/><circle class="cls-12" cx="59.99" cy="87.76" r="19.09"/><circle class="cls-10" cx="58.83" cy="85.75" r="19.09"/><ellipse class="cls-13" cx="58.72" cy="85.56" rx="14.54" ry="14.18" transform="translate(-8 6.08) rotate(-5.55)"/><path class="cls-6" d="M60.09,99.62A14.53,14.53,0,0,1,44.27,87a2.93,2.93,0,0,0,0,.41,14.54,14.54,0,1,0,28.94-2.81h0c0-.14,0-.28,0-.41A14.54,14.54,0,0,1,60.09,99.62Z"/><path class="cls-14" d="M57.36,71.5A14.52,14.52,0,0,1,73.18,84.15c0-.14,0-.27,0-.42a14.54,14.54,0,0,0-28.94,2.82c0,.14,0,.27,0,.41A14.54,14.54,0,0,1,57.36,71.5Z"/><path class="cls-6" d="M76.07,77.54a.57.57,0,0,1-.08-.13l-.22-.4c-.09-.18-.22-.39-.36-.64s-.32-.54-.53-.85a19.4,19.4,0,0,0-4.31-4.68,20.05,20.05,0,0,0-3.76-2.28A19.41,19.41,0,0,0,62,67.09a17.51,17.51,0,0,0-2.71-.25,18,18,0,0,0-2.85.15,19.1,19.1,0,0,0-8.35,3.21,19.38,19.38,0,0,0-2.29,1.86,19.15,19.15,0,0,0-3.42,4.39,19.72,19.72,0,0,0-1.89,4.67,19.92,19.92,0,0,0-.31,8,20.81,20.81,0,0,0,.66,2.67c.11.36.22.67.33,1s.19.5.27.68l.17.42a.88.88,0,0,1,0,.15.35.35,0,0,1-.08-.13l-.2-.41a6.73,6.73,0,0,1-.3-.68c-.11-.27-.25-.58-.36-.94a18.42,18.42,0,0,1-1-6.34,19,19,0,0,1,2.45-9.18A19.14,19.14,0,0,1,56.4,66.66a17.44,17.44,0,0,1,2.89-.15,18.3,18.3,0,0,1,2.76.27,19.05,19.05,0,0,1,8.67,3.87,18.8,18.8,0,0,1,2.65,2.55A18.45,18.45,0,0,1,75,75.44c.21.32.37.62.51.88s.25.48.34.66l.19.41C76.07,77.49,76.09,77.54,76.07,77.54Z"/><path class="cls-6" d="M60.4,84.73a7.33,7.33,0,0,1-2.19.38,7.47,7.47,0,0,1-2.21,0,7,7,0,0,1,2.18-.39A7.74,7.74,0,0,1,60.4,84.73Z"/><path class="cls-6" d="M61.14,91.49a7.6,7.6,0,0,1-2.18.38,7,7,0,0,1-2.22,0,7.6,7.6,0,0,1,2.18-.38A7,7,0,0,1,61.14,91.49Z"/><path class="cls-7" d="M56.1,106.45a12,12,0,0,1-1.14-2A11,11,0,0,1,56.1,106.45Z"/><path class="cls-7" d="M53,105.44a10.08,10.08,0,0,1-1.09-1.91A10.34,10.34,0,0,1,53,105.44Z"/><path class="cls-7" d="M50.08,104.06a4.72,4.72,0,0,1-.59-.93,5.32,5.32,0,0,1-.5-1,5.68,5.68,0,0,1,.6.93A6,6,0,0,1,50.08,104.06Z"/><path class="cls-7" d="M59.41,106.85a6.14,6.14,0,0,1-.62-1,6.21,6.21,0,0,1-.52-1,11.39,11.39,0,0,1,1.14,2Z"/><path class="cls-7" d="M62.5,106.68a11.33,11.33,0,0,1-1.14-2A12,12,0,0,1,62.5,106.68Z"/><path class="cls-7" d="M65.52,106a7,7,0,0,1-.62-1,6.21,6.21,0,0,1-.52-1,11.39,11.39,0,0,1,1.14,2Z"/><path class="cls-7" d="M68.29,105a5.5,5.5,0,0,1-.62-1,5.85,5.85,0,0,1-.52-1,11.39,11.39,0,0,1,1.14,2Z"/><path class="cls-7" d="M70.94,103.46a6.7,6.7,0,0,1-.63-1,6.63,6.63,0,0,1-.52-1,10.65,10.65,0,0,1,1.15,2Z"/><path class="cls-7" d="M73.22,101.56a7,7,0,0,1-.62-1,6.63,6.63,0,0,1-.52-1,5.5,5.5,0,0,1,.62,1A5.85,5.85,0,0,1,73.22,101.56Z"/><path class="cls-7" d="M75.05,99.56a11.39,11.39,0,0,1-1.14-2,11.39,11.39,0,0,1,1.14,2Z"/><path class="cls-7" d="M76.7,97.26a12,12,0,0,1-1.14-2,5.16,5.16,0,0,1,.62,1A5.53,5.53,0,0,1,76.7,97.26Z"/><path class="cls-7" d="M78.05,94.64a5.5,5.5,0,0,1-.62-1,5.85,5.85,0,0,1-.52-1,6.14,6.14,0,0,1,.62,1A6.63,6.63,0,0,1,78.05,94.64Z"/><path class="cls-7" d="M78.9,91.7a6.14,6.14,0,0,1-.62-1,6.63,6.63,0,0,1-.52-1,5.16,5.16,0,0,1,.62,1A5.53,5.53,0,0,1,78.9,91.7Z"/><path class="cls-7" d="M79.3,88.58a8,8,0,0,1-.74-1.18,8.73,8.73,0,0,1-.65-1.25,17.73,17.73,0,0,1,1.39,2.43Z"/><path class="cls-7" d="M78.87,84.19A7.64,7.64,0,0,1,78.13,83a9.12,9.12,0,0,1-.65-1.24A9.16,9.16,0,0,1,78.23,83,9.69,9.69,0,0,1,78.87,84.19Z"/><path class="cls-1" d="M49.29,89.07a.28.28,0,0,0,0,.25.25.25,0,0,0,.35.11.26.26,0,0,0,.13-.16.3.3,0,0,0-.05-.24c-.1-.13-.23-.11-.22-.13S49.37,88.93,49.29,89.07Z"/><path class="cls-1" d="M58.6,82.56a.28.28,0,0,0,0,.25.27.27,0,0,0,.25.14.27.27,0,0,0,.22-.18.14.14,0,0,0,0-.09h0a.25.25,0,0,0-.06-.16c-.1-.12-.23-.11-.22-.13S58.67,82.42,58.6,82.56Z"/><path class="cls-1" d="M47.67,98a.28.28,0,0,0,0,.25.25.25,0,0,0,.47,0,.24.24,0,0,0,0-.24c-.1-.13-.22-.11-.22-.13S47.74,97.9,47.67,98Z"/><path class="cls-1" d="M69.94,83a.28.28,0,0,0,0,.25.25.25,0,0,0,.34.12.29.29,0,0,0,.13-.16.25.25,0,0,0,0-.25c-.1-.12-.22-.11-.22-.13S70,82.86,69.94,83Z"/><path class="cls-1" d="M50.61,74.77a.28.28,0,0,0,0,.25.24.24,0,0,0,.34.11.26.26,0,0,0,.14-.15.31.31,0,0,0-.23-.36v0a.49.49,0,0,1,0,.17.51.51,0,0,1,0-.17v0s0,0,0,0S50.69,74.63,50.61,74.77Z"/><path class="cls-1" d="M70.81,79.49a.28.28,0,0,0,0,.25.26.26,0,0,0,.48,0,.3.3,0,0,0-.05-.24c-.11-.12-.23-.11-.22-.13S70.88,79.35,70.81,79.49Z"/><path class="cls-1" d="M58,83.94a.28.28,0,0,0,0,.25.26.26,0,0,0,.34.11.25.25,0,0,0,.14-.16.29.29,0,0,0,0-.22h0v0c-.1-.12-.23-.11-.22-.13A.5.5,0,0,0,58,83.94Z"/><path class="cls-1" d="M55.6,88.26a.28.28,0,0,0,0,.25.25.25,0,0,0,.34.12.26.26,0,0,0,.13-.16v-.06h0a.21.21,0,0,0-.06-.18c-.1-.12-.23-.11-.21-.13A.36.36,0,0,0,55.6,88.26Z"/><path class="cls-4" d="M68.18,92.43a.19.19,0,0,0,.17-.19h0l.55,0L71,92h0l2.15-1.77,4.34-.42a.7.7,0,0,1,0-.14l-4.4.44h0v0l-2.14,1.79-2,.22-.55.07h0a.19.19,0,0,0-.22-.16.19.19,0,0,0-.16.21h0A.18.18,0,0,0,68.18,92.43Z"/><path class="cls-4" d="M49.41,76.61a.2.2,0,0,0,.2.18h0a.19.19,0,1,0-.06-.37A.18.18,0,0,0,49.41,76.61Z"/><path class="cls-4" d="M55.58,100.46c0-.53-.11-1-.16-1.53v0l0,0-1.19-.74,0,0h0l-2.73.3-.78.09h-.09a.18.18,0,0,0-.2-.16.19.19,0,0,0-.16.22.18.18,0,0,0,.2.16.18.18,0,0,0,.16-.19h.09l.78-.06,2.72-.24L55.3,99c.05.48.1,1,.15,1.51l.41,4.12H56C55.86,103.47,55.72,102,55.58,100.46Z"/><path class="cls-4" d="M74.91,95.22l-9.52.91-2.09.2h0v0l-.66,2.47v0c.22,2.13.41,4,.56,5.48l.08,0c-.14-1.47-.31-3.34-.51-5.46.22-.77.43-1.58.65-2.41l2-.2,9.52-.94.46,0,0-.09Z"/><path class="cls-4" d="M55.83,70.29l0,0v0c.14,1.31.26,2.44.34,3.25.05.39.09.7.11.93s0,.22.05.33a1.82,1.82,0,0,0,0-.33c0-.24,0-.55-.07-.93-.07-.82-.17-1.93-.29-3.24l1.78-2.15,1-1.16V67l0-.32h-.12l0,.31-.94,1.14Z"/><path class="cls-4" d="M58,70.22a.27.27,0,0,0,0-.12.19.19,0,0,0-.21-.17.18.18,0,0,0-.17.2h0a.18.18,0,0,0,.19.18.14.14,0,0,0,.12-.06l.2.18c.21.19.5.44.85.73,0,.28.06.58.09.88.06.69.13,1.32.19,1.77a3,3,0,0,0,.12.73,4.58,4.58,0,0,0,0-.74c0-.45-.09-1.08-.15-1.77,0-.32-.07-.63-.1-.91v0h0c-.36-.3-.68-.55-.9-.72Z"/><path class="cls-4" d="M46,71.58l1.21,1.21,0,0h0l3.29-.33c.07.7.14,1.28.18,1.71,0,.15,0,.29,0,.4h0s0,0,0,0v0a.47.47,0,0,0,0,.17v-.21a.34.34,0,0,1,.17.11.26.26,0,0,1-.26.42.21.21,0,0,1-.16-.13.28.28,0,0,1,0-.25c.07-.14.2-.15.19-.17s0,0-.08,0a.29.29,0,0,0-.19.13.34.34,0,0,0,0,.35.37.37,0,0,0,.49.19A.42.42,0,0,0,51.2,75a.34.34,0,0,0-.32-.43h0c0-.11,0-.24,0-.4,0-.44-.09-1-.15-1.75v-.06h-.05l-3.29.31L46.14,71.5Z"/><path class="cls-10" d="M12.93,59.42s3-2.39,12.82,2.8c0,0,9.91,4.32,6.59,8.44-2.81,3.51-8.58,1.51-11.76,0a25.52,25.52,0,0,1-5.12-3.29C12.93,65.28,10.81,62.1,12.93,59.42Z"/><path class="cls-12" d="M12.93,59.42s3-2.39,12.82,2.8c0,0,9.91,4.32,6.59,8.44-2.81,3.51-8.58,1.51-11.76,0a25.52,25.52,0,0,1-5.12-3.29C12.93,65.28,10.81,62.1,12.93,59.42Z"/><path class="cls-10" d="M13.15,59.24s3.48-3.62,13.33,1.58c0,0,9.67,5.51,6,9.31-2.52,2.6-8,.64-11.15-.85A28.11,28.11,0,0,1,15.91,66C13.37,63.88,11.5,61.19,13.15,59.24Z"/><ellipse class="cls-13" cx="22.93" cy="64.66" rx="3.44" ry="8.81" transform="translate(-44.95 54.74) rotate(-62.16)"/><path class="cls-6" d="M13.59,58.92a1.19,1.19,0,0,1,.21-.15l.27-.14.39-.17A8.43,8.43,0,0,1,17,57.87a12.54,12.54,0,0,1,1.84,0,14.4,14.4,0,0,1,2.08.39A24.79,24.79,0,0,1,25.43,60a18,18,0,0,1,6.84,5.36,5.29,5.29,0,0,1,1,2.44,1.5,1.5,0,0,0,0,.22v.2a1.53,1.53,0,0,1,0,.3.7.7,0,0,1,0,.25s0-.35-.07-1a5.51,5.51,0,0,0-1.1-2.33,18.78,18.78,0,0,0-6.8-5.19,26.4,26.4,0,0,0-4.42-1.75,13.59,13.59,0,0,0-2-.39,12,12,0,0,0-1.8-.07,9.57,9.57,0,0,0-2.55.47C13.9,58.78,13.6,59,13.59,58.92Z"/><path class="cls-12" d="M30.83,68.51s1.39-3.41-6-7.43-9.69-.55-9.69-.55,1.91-2.86,9.61,1.17C31.44,65.22,30.83,68.51,30.83,68.51Z"/><path class="cls-7" d="M28.93,72.53s0-.28.14-.59a1.42,1.42,0,0,1,.27-.55,1.79,1.79,0,0,1-.16.59A2.27,2.27,0,0,1,28.93,72.53Z"/><path class="cls-7" d="M30.76,72s0-.23.1-.48.19-.45.22-.44a1.36,1.36,0,0,1-.12.48A1.58,1.58,0,0,1,30.76,72Z"/><path class="cls-7" d="M27.32,72.59a2.08,2.08,0,0,1,.17-.65,2,2,0,0,1,.28-.62,2.14,2.14,0,0,1-.17.66A1.88,1.88,0,0,1,27.32,72.59Z"/><path class="cls-7" d="M25.76,72.42a2.07,2.07,0,0,1,.18-.69,2.18,2.18,0,0,1,.29-.66,4.34,4.34,0,0,1-.47,1.35Z"/><path class="cls-7" d="M24.05,72a2.26,2.26,0,0,1,.18-.69,2.47,2.47,0,0,1,.3-.66,2.36,2.36,0,0,1-.19.69A2.29,2.29,0,0,1,24.05,72Z"/><path class="cls-7" d="M22.47,71.4a2.42,2.42,0,0,1,.19-.7,2.23,2.23,0,0,1,.29-.65,2.7,2.7,0,0,1-.18.69A2.45,2.45,0,0,1,22.47,71.4Z"/><path class="cls-7" d="M20.9,70.84a2.07,2.07,0,0,1,.18-.69,2.18,2.18,0,0,1,.29-.66A4.34,4.34,0,0,1,20.9,70.84Z"/><path class="cls-7" d="M19.42,70a2.07,2.07,0,0,1,.18-.69,2.29,2.29,0,0,1,.29-.66,2.07,2.07,0,0,1-.18.69A2.18,2.18,0,0,1,19.42,70Z"/><path class="cls-7" d="M18,69.13a4.61,4.61,0,0,1,.47-1.35,2.13,2.13,0,0,1-.18.7A2.23,2.23,0,0,1,18,69.13Z"/><path class="cls-7" d="M16.49,68.22a2.36,2.36,0,0,1,.19-.69,2.29,2.29,0,0,1,.29-.66,2.36,2.36,0,0,1-.19.69A2.18,2.18,0,0,1,16.49,68.22Z"/><path class="cls-7" d="M15.16,67.19a4.63,4.63,0,0,1,.48-1.35,2.36,2.36,0,0,1-.19.69A2.18,2.18,0,0,1,15.16,67.19Z"/><path class="cls-7" d="M13.87,65.92a4.53,4.53,0,0,1,.48-1.35,2.34,2.34,0,0,1-.18.69A2.45,2.45,0,0,1,13.87,65.92Z"/><path class="cls-7" d="M12.9,64.41a1.84,1.84,0,0,1,.16-.61,1.66,1.66,0,0,1,.27-.59,1.84,1.84,0,0,1-.16.61A1.66,1.66,0,0,1,12.9,64.41Z"/><path class="cls-7" d="M12.19,62.85a1.89,1.89,0,0,1,.16-.62,1.54,1.54,0,0,1,.27-.58,2,2,0,0,1-.16.62A2,2,0,0,1,12.19,62.85Z"/><path class="cls-10" d="M89.16,108.64a.92.92,0,0,1-1.37,0,2.66,2.66,0,0,1-.58-1.19,6.36,6.36,0,0,1-.35-3,1.64,1.64,0,0,1,.38-.82.89.89,0,0,1,.83-.28,1.32,1.32,0,0,1,.72.76,7.27,7.27,0,0,1,.71,3.07,2.47,2.47,0,0,1-.34,1.43"/><path class="cls-15" d="M89.16,108.64a.92.92,0,0,1-1.37,0,2.66,2.66,0,0,1-.58-1.19,6.36,6.36,0,0,1-.35-3,1.64,1.64,0,0,1,.38-.82.89.89,0,0,1,.83-.28,1.32,1.32,0,0,1,.72.76,7.27,7.27,0,0,1,.71,3.07,2.47,2.47,0,0,1-.34,1.43"/><path class="cls-10" d="M87.83,111.21a3.1,3.1,0,0,0-1.92-.23,1.59,1.59,0,0,0-.94.42.67.67,0,0,0,0,.95.88.88,0,0,0,.59.15,2.38,2.38,0,0,1,1.48.22c.23.17.38.46.65.55a.67.67,0,0,0,.72-.32,1.14,1.14,0,0,0,.08-.83A1.26,1.26,0,0,0,87.83,111.21Z"/><path class="cls-10" d="M90.14,109.37a1.87,1.87,0,0,1-.29-1.71,3.32,3.32,0,0,1,1-1.46,5.52,5.52,0,0,1,1.81-1.07,2.07,2.07,0,0,1,.81-.14.88.88,0,0,1,.69.42,1.27,1.27,0,0,1-.2,1.16,13.38,13.38,0,0,1-1.18,1.81,3.09,3.09,0,0,1-1.32,1.11,1.17,1.17,0,0,1-1.39-.19"/><path class="cls-7" d="M89.19,116.31a.85.85,0,0,1,0-.23c0-.17,0-.38-.07-.63a9.27,9.27,0,0,0-.14-.92,5.85,5.85,0,0,0-.34-1.1,3.69,3.69,0,0,0-.55-1,2,2,0,0,0-.71-.59,2.11,2.11,0,0,0-.59-.18,1.6,1.6,0,0,1-.23,0,.88.88,0,0,1,.23,0,1.62,1.62,0,0,1,.62.16,2.05,2.05,0,0,1,.75.59,3.71,3.71,0,0,1,.57,1,6.19,6.19,0,0,1,.34,1.11,7.4,7.4,0,0,1,.12.93c0,.27,0,.49,0,.64A.88.88,0,0,1,89.19,116.31Z"/><path class="cls-7" d="M89.14,115.83v-.42c0-.26,0-.65,0-1.12,0-1-.1-2.27-.26-3.71s-.37-2.75-.57-3.68c0-.23-.09-.44-.13-.63s-.08-.34-.11-.47l-.07-.3a.36.36,0,0,1,0-.1,1,1,0,0,1,0,.1c0,.07,0,.17.08.29s.09.29.13.47.1.39.15.63a34.81,34.81,0,0,1,.59,3.68c.16,1.44.23,2.76.24,3.72,0,.48,0,.87,0,1.13a2.54,2.54,0,0,1,0,.31A.36.36,0,0,1,89.14,115.83Z"/><path class="cls-7" d="M89.14,113.29a1.71,1.71,0,0,1,0-.32c0-.21,0-.51.09-.88s.17-.85.29-1.27a11,11,0,0,1,.53-1.49,8.13,8.13,0,0,1,1.55-2.42,3.8,3.8,0,0,1,.37-.33l.15-.14.14-.1.27-.17a10.87,10.87,0,0,0-.87.79,8.54,8.54,0,0,0-1.52,2.41,11.49,11.49,0,0,0-.53,1.49c-.14.46-.22.89-.3,1.25a7,7,0,0,0-.13.86A1.75,1.75,0,0,1,89.14,113.29Z"/><g class="cls-16"><path d="M67,79.23A1.75,1.75,0,0,0,65.84,78L57.5,75.47a1.69,1.69,0,0,0-1.67.41l-6.25,6.06a1.77,1.77,0,0,0-.48,1.68l2.1,8.56a1.74,1.74,0,0,0,1.19,1.27l8.35,2.49a1.69,1.69,0,0,0,1.67-.41l6.25-6.06a1.76,1.76,0,0,0,.47-1.68ZM68.44,88a1,1,0,0,1-.28,1L61.91,95a1,1,0,0,1-1,.24l-8.34-2.5a1,1,0,0,1-.7-.74l-2.1-8.56a1.06,1.06,0,0,1,.28-1l6.25-6.06a1,1,0,0,1,1-.24l8.35,2.5a1,1,0,0,1,.7.74Z"/><path d="M63.61,89.86a2.77,2.77,0,0,0-.22-.63,4.69,4.69,0,0,0-.73-1c-.16-.18-.32-.35-.49-.51l-.32-.3.4.16c.22.07.45.15.68.21h0a5.49,5.49,0,0,0,.9.17,2.7,2.7,0,0,0,1-.09,1.4,1.4,0,0,0,.57-.32,2.12,2.12,0,0,0,.35-.44,2.17,2.17,0,0,0,.26-.67,1.85,1.85,0,0,0-.19-1.24,1.9,1.9,0,0,0-.67-.68,2.16,2.16,0,0,0-.34-.17A2.18,2.18,0,0,0,65,84a2,2,0,0,0,.29-.92,1.86,1.86,0,0,0-.41-1.18,2.11,2.11,0,0,0-.55-.48,1.73,1.73,0,0,0-.5-.22,1.48,1.48,0,0,0-.66,0,1.91,1.91,0,0,0-.62.22,4.26,4.26,0,0,0-1,.73h0c-.18.16-.34.32-.5.49l-.29.32c.06-.13.1-.26.15-.4s.14-.45.2-.68a4.79,4.79,0,0,0,.16-.92,2.81,2.81,0,0,0-.09-1,1.51,1.51,0,0,0-.32-.58,2.44,2.44,0,0,0-.43-.35,2.05,2.05,0,0,0-.67-.27,1.72,1.72,0,0,0-1.22.18,1.8,1.8,0,0,0-.66.68,2.06,2.06,0,0,0-.17.33l-.31-.22a1.91,1.91,0,0,0-.9-.29,1.77,1.77,0,0,0-1.17.4,2,2,0,0,0-.46.55,1.92,1.92,0,0,0-.22.51,1.52,1.52,0,0,0,0,.67,2.34,2.34,0,0,0,.21.63,5.33,5.33,0,0,0,.73,1c.16.18.33.35.49.51l.32.29-.4-.15c-.22-.08-.44-.15-.67-.21h0a5.61,5.61,0,0,0-.91-.17,2.5,2.5,0,0,0-1,.09,1.47,1.47,0,0,0-.57.32,2,2,0,0,0-.34.43,2.1,2.1,0,0,0-.27.68,1.85,1.85,0,0,0,.19,1.24,2,2,0,0,0,.67.68,3.59,3.59,0,0,0,.34.17,3.46,3.46,0,0,0-.22.31,1.87,1.87,0,0,0-.28.91,1.84,1.84,0,0,0,.4,1.19,2.05,2.05,0,0,0,.55.47,1.75,1.75,0,0,0,.5.23h0a1.47,1.47,0,0,0,.66,0,2.39,2.39,0,0,0,.62-.21,4.56,4.56,0,0,0,1-.73l.11-.1L57,89l.16-.17.29-.32-.15.4c-.07.23-.14.45-.2.68a4.79,4.79,0,0,0-.16.92,2.76,2.76,0,0,0,.09,1,1.48,1.48,0,0,0,.32.59,2.44,2.44,0,0,0,.43.35,2.14,2.14,0,0,0,.67.27,1.72,1.72,0,0,0,1.22-.18,1.8,1.8,0,0,0,.67-.67c.06-.11.12-.23.17-.34a3.3,3.3,0,0,0,.3.22,1.81,1.81,0,0,0,.9.29,1.77,1.77,0,0,0,1.17-.4,2.21,2.21,0,0,0,.69-1.06A1.68,1.68,0,0,0,63.61,89.86Z"/></g><path class="cls-10" d="M66.75,79.63a1.76,1.76,0,0,0-1.2-1.26l-8.34-2.5a1.69,1.69,0,0,0-1.67.41l-6.25,6.06A1.77,1.77,0,0,0,48.81,84l2.09,8.56a1.77,1.77,0,0,0,1.2,1.27l8.34,2.5a1.73,1.73,0,0,0,1.68-.41l6.25-6.07a1.76,1.76,0,0,0,.47-1.68Zm1.4,8.73a1,1,0,0,1-.28,1l-6.25,6.06a1,1,0,0,1-1,.24L52.3,93.16a1,1,0,0,1-.7-.75l-2.1-8.56a1,1,0,0,1,.28-1L56,76.8a1,1,0,0,1,1-.24l8.35,2.5a1,1,0,0,1,.7.74Z"/><path class="cls-10" d="M63.32,90.26a2.77,2.77,0,0,0-.22-.63,4.93,4.93,0,0,0-.73-1c-.16-.18-.32-.35-.49-.51a4.2,4.2,0,0,0-.32-.29L62,88c.22.08.44.15.67.21h0a5.82,5.82,0,0,0,.91.17,2.5,2.5,0,0,0,1-.08,1.55,1.55,0,0,0,.57-.33,1.62,1.62,0,0,0,.34-.44,2,2,0,0,0,.27-.67,1.85,1.85,0,0,0-.19-1.24,1.9,1.9,0,0,0-.67-.68,3.59,3.59,0,0,0-.34-.17,2.18,2.18,0,0,0,.22-.31,1.8,1.8,0,0,0-.12-2.1,2.11,2.11,0,0,0-.55-.48,2.24,2.24,0,0,0-.5-.22,1.48,1.48,0,0,0-.66,0,2.18,2.18,0,0,0-.62.22,4.26,4.26,0,0,0-1,.73h0c-.18.16-.34.33-.5.49l-.29.33c.06-.13.1-.27.15-.41s.14-.45.2-.68a4.79,4.79,0,0,0,.16-.92,2.76,2.76,0,0,0-.09-1,1.48,1.48,0,0,0-.32-.59,2.44,2.44,0,0,0-.43-.35,2.05,2.05,0,0,0-.67-.27,1.72,1.72,0,0,0-1.22.18,1.8,1.8,0,0,0-.66.68,2.16,2.16,0,0,0-.17.34,2.26,2.26,0,0,0-.31-.23,1.91,1.91,0,0,0-.9-.29,1.77,1.77,0,0,0-1.17.4,2.21,2.21,0,0,0-.46.55,1.64,1.64,0,0,0-.22.51,1.52,1.52,0,0,0,0,.67,2.34,2.34,0,0,0,.21.63,4.69,4.69,0,0,0,.73,1c.16.18.33.35.49.51l.32.3-.4-.16c-.22-.07-.44-.15-.67-.21h0a5.61,5.61,0,0,0-.91-.17,2.7,2.7,0,0,0-1,.09,1.47,1.47,0,0,0-.57.32,2.07,2.07,0,0,0-.34.44,2,2,0,0,0-.27.67,1.85,1.85,0,0,0,.19,1.24,1.9,1.9,0,0,0,.67.68,2.16,2.16,0,0,0,.34.17,2.18,2.18,0,0,0-.22.31,1.87,1.87,0,0,0-.28.92,1.8,1.8,0,0,0,.4,1.18,2.29,2.29,0,0,0,.55.48,1.73,1.73,0,0,0,.5.22h0a1.47,1.47,0,0,0,.66,0,2.87,2.87,0,0,0,.62-.22,4.26,4.26,0,0,0,1-.73l.1-.1.24-.22.16-.17c.1-.11.2-.21.29-.32-.06.13-.1.26-.15.4s-.14.45-.2.68a4.93,4.93,0,0,0-.16.92,2.81,2.81,0,0,0,.09,1,1.51,1.51,0,0,0,.32.58,1.79,1.79,0,0,0,.43.35,2.07,2.07,0,0,0,.67.28,1.84,1.84,0,0,0,1.22-.18,1.9,1.9,0,0,0,.67-.68,3.59,3.59,0,0,0,.17-.34,3.3,3.3,0,0,0,.3.22,1.82,1.82,0,0,0,.9.3A1.78,1.78,0,0,0,62.61,92a2.12,2.12,0,0,0,.69-1.06A1.68,1.68,0,0,0,63.32,90.26Z"/><path class="cls-3" d="M31.4,93.11a.86.86,0,0,0,0-.85l-2.16-3.63a.81.81,0,0,0-.73-.4l-4.21.17a.86.86,0,0,0-.72.45l-2.06,3.8a.87.87,0,0,0,0,.84l2.16,3.63a.81.81,0,0,0,.73.4l4.21-.17a.84.84,0,0,0,.72-.45ZM29,96.73a.51.51,0,0,1-.42.27l-4.22.17a.49.49,0,0,1-.42-.24l-2.16-3.62a.52.52,0,0,1,0-.5L23.87,89a.52.52,0,0,1,.42-.27l4.22-.16a.48.48,0,0,1,.43.23l2.15,3.62a.5.5,0,0,1,0,.5Z"/><path class="cls-3" d="M26.69,95.85a1.35,1.35,0,0,0,.14-.3,2.54,2.54,0,0,0,.07-.61v-.35c0-.07,0-.14,0-.21l.09.19c.05.1.11.19.17.29h0a2.42,2.42,0,0,0,.27.36,1.2,1.2,0,0,0,.38.29.78.78,0,0,0,.31.07,1.19,1.19,0,0,0,.26,0,1.07,1.07,0,0,0,.32-.16.92.92,0,0,0,.32-1,1.22,1.22,0,0,0-.07-.17l.18,0a.91.91,0,0,0,.4-.24.9.9,0,0,0,.25-.56,1,1,0,0,0,0-.35.8.8,0,0,0-.11-.25.66.66,0,0,0-.22-.22,1.08,1.08,0,0,0-.29-.13,2.07,2.07,0,0,0-.61-.06h0l-.34,0-.2,0,.18-.1.3-.18a2.48,2.48,0,0,0,.36-.28,1.37,1.37,0,0,0,.29-.39.89.89,0,0,0,.08-.32,2.51,2.51,0,0,0,0-.27.89.89,0,0,0-.15-.31.87.87,0,0,0-.5-.34.86.86,0,0,0-.45,0l-.18.07a1.13,1.13,0,0,0,0-.18.9.9,0,0,0-.23-.4.81.81,0,0,0-.55-.23,1,1,0,0,0-.34,0,1.15,1.15,0,0,0-.25.12.8.8,0,0,0-.22.23,1.3,1.3,0,0,0-.13.3,2.57,2.57,0,0,0-.08.62c0,.11,0,.23,0,.34a1.49,1.49,0,0,0,0,.21l-.1-.19c-.05-.1-.11-.19-.17-.29h0a2.42,2.42,0,0,0-.27-.36,1.16,1.16,0,0,0-.37-.29.87.87,0,0,0-.31-.07,1.28,1.28,0,0,0-.27,0,.92.92,0,0,0-.31.16.9.9,0,0,0-.34.51.93.93,0,0,0,0,.47,1.22,1.22,0,0,0,.07.17l-.18,0a.91.91,0,0,0-.4.24.84.84,0,0,0-.24.56,1,1,0,0,0,0,.35,1.12,1.12,0,0,0,.11.25h0a.77.77,0,0,0,.22.22.86.86,0,0,0,.3.12,2,2,0,0,0,.6.07h.34l.2,0-.18.1-.3.18a4.39,4.39,0,0,0-.36.28,1.37,1.37,0,0,0-.29.39.71.71,0,0,0-.07.32,1.24,1.24,0,0,0,0,.27,1.33,1.33,0,0,0,.15.32.83.83,0,0,0,1,.3l.17-.07,0,.18a.9.9,0,0,0,.23.4.87.87,0,0,0,.55.24,1.06,1.06,0,0,0,.59-.17A.69.69,0,0,0,26.69,95.85Z"/><path class="cls-5" d="M31.17,93.16a.88.88,0,0,0,0-.85L29,88.68a.8.8,0,0,0-.73-.39l-4.22.16a.86.86,0,0,0-.71.45l-2.06,3.8a.83.83,0,0,0,0,.85l2.15,3.62a.82.82,0,0,0,.73.4l4.22-.17a.86.86,0,0,0,.72-.45Zm-2.36,3.63a.54.54,0,0,1-.43.26l-4.21.17a.47.47,0,0,1-.43-.24l-2.16-3.62a.5.5,0,0,1,0-.5l2.06-3.79a.49.49,0,0,1,.42-.27l4.21-.16a.47.47,0,0,1,.43.23l2.16,3.63a.48.48,0,0,1,0,.49Z"/><path class="cls-5" d="M26.46,95.9a1.14,1.14,0,0,0,.13-.3,2.55,2.55,0,0,0,.08-.61c0-.12,0-.23,0-.35a1.49,1.49,0,0,0,0-.21l.1.19a1.69,1.69,0,0,0,.17.29h0a1.83,1.83,0,0,0,.26.36,1.33,1.33,0,0,0,.38.29.67.67,0,0,0,.31.07.86.86,0,0,0,.27,0,1,1,0,0,0,.31-.16.86.86,0,0,0,.34-.51.9.9,0,0,0,0-.46,1.27,1.27,0,0,0-.06-.18l.18,0a.83.83,0,0,0,.4-.24.89.89,0,0,0,.24-.56.82.82,0,0,0,0-.35,1.09,1.09,0,0,0-.1-.25.8.8,0,0,0-.23-.22,1.08,1.08,0,0,0-.29-.13,2.45,2.45,0,0,0-.6-.06h0l-.34,0-.21,0,.19-.1.29-.18a2.48,2.48,0,0,0,.36-.28,1.24,1.24,0,0,0,.29-.39.72.72,0,0,0,.08-.32.84.84,0,0,0,0-.27.89.89,0,0,0-.15-.31.85.85,0,0,0-.49-.34,1,1,0,0,0-.46,0l-.17.07a1.16,1.16,0,0,0,0-.18.88.88,0,0,0-.22-.4.85.85,0,0,0-.55-.23,1,1,0,0,0-.35,0,1.08,1.08,0,0,0-.24.12A.84.84,0,0,0,26,90a1.94,1.94,0,0,0-.13.3,2.15,2.15,0,0,0-.07.62c0,.11,0,.23,0,.34s0,.14,0,.21l-.09-.18-.17-.3h0a2.42,2.42,0,0,0-.27-.36,1.33,1.33,0,0,0-.38-.29.78.78,0,0,0-.31-.06.75.75,0,0,0-.26,0,1.2,1.2,0,0,0-.32.16.87.87,0,0,0-.32,1l.06.17-.18,0a1.1,1.1,0,0,0-.4.24.89.89,0,0,0-.24.56.82.82,0,0,0,0,.35,1.09,1.09,0,0,0,.1.25h0a.69.69,0,0,0,.23.22,1.08,1.08,0,0,0,.29.13,2.45,2.45,0,0,0,.6.06h.34l.21,0-.19.1-.29.18a3.44,3.44,0,0,0-.36.28,1.37,1.37,0,0,0-.29.39.72.72,0,0,0-.08.32.84.84,0,0,0,0,.27,1,1,0,0,0,.15.32.83.83,0,0,0,.49.33.9.9,0,0,0,.46,0l.17-.07a1.16,1.16,0,0,0,0,.18,1,1,0,0,0,.22.4.84.84,0,0,0,.55.24,1.09,1.09,0,0,0,.59-.16A1,1,0,0,0,26.46,95.9Z"/><path class="cls-3" d="M95.17,69.84a1.08,1.08,0,0,0-.94-.47l-5.22.3a1,1,0,0,0-.85.58L85.93,75A1.09,1.09,0,0,0,86,76l3,4.43a1,1,0,0,0,.94.47l5.22-.3a1,1,0,0,0,.85-.57l2.23-4.73a1.07,1.07,0,0,0-.09-1Zm2.64,4.67a.63.63,0,0,1,0,.61l-2.22,4.73a.6.6,0,0,1-.5.34l-5.22.3a.61.61,0,0,1-.55-.28l-3-4.42a.65.65,0,0,1-.05-.62l2.22-4.73a.62.62,0,0,1,.5-.34l5.22-.3a.61.61,0,0,1,.55.28Z"/><path class="cls-3" d="M95.49,76.58a1.26,1.26,0,0,0-.25-.31,2.74,2.74,0,0,0-.63-.44l-.38-.19-.25-.1h.26l.42,0h0a4.85,4.85,0,0,0,.55-.09,1.72,1.72,0,0,0,.53-.25,1.06,1.06,0,0,0,.26-.3,1.17,1.17,0,0,0,.09-.32,1.3,1.3,0,0,0,0-.44,1.07,1.07,0,0,0-.37-.66,1.15,1.15,0,0,0-.52-.25.91.91,0,0,0-.23,0A.9.9,0,0,0,95,73a1.14,1.14,0,0,0,0-.58,1.21,1.21,0,0,0-.48-.59,1.27,1.27,0,0,0-.41-.15.93.93,0,0,0-.33,0,1,1,0,0,0-.38.12,1.42,1.42,0,0,0-.3.25,2.35,2.35,0,0,0-.41.63h0c-.07.12-.12.25-.18.38l-.09.24V73c0-.14,0-.28,0-.43a2.65,2.65,0,0,0-.1-.55,1.64,1.64,0,0,0-.26-.55.86.86,0,0,0-.31-.26,1.21,1.21,0,0,0-.32-.11,1.23,1.23,0,0,0-.43,0,1,1,0,0,0-.64.35,1.11,1.11,0,0,0-.23.52,2.08,2.08,0,0,0,0,.23,1.41,1.41,0,0,0-.22-.06,1.1,1.1,0,0,0-.57,0,1.06,1.06,0,0,0-.57.47,1.12,1.12,0,0,0-.14.4,1.3,1.3,0,0,0,0,.34,1.09,1.09,0,0,0,.14.38,1.26,1.26,0,0,0,.25.31,2.74,2.74,0,0,0,.63.44l.38.19.25.1h-.26l-.43,0h0a2.54,2.54,0,0,0-.54.09,1.36,1.36,0,0,0-.53.25.94.94,0,0,0-.26.3,1.6,1.6,0,0,0-.1.31,1.3,1.3,0,0,0,0,.44,1.07,1.07,0,0,0,.89.91.83.83,0,0,0,.22,0,1.74,1.74,0,0,0,0,.22,1.14,1.14,0,0,0,0,.58,1.16,1.16,0,0,0,.48.59,1.29,1.29,0,0,0,.41.16,1.22,1.22,0,0,0,.33,0h0a.81.81,0,0,0,.37-.12,1.48,1.48,0,0,0,.31-.25,3.17,3.17,0,0,0,.41-.62l0-.08.08-.18.06-.13.09-.24v.26l0,.43a3.69,3.69,0,0,0,.11.56,1.59,1.59,0,0,0,.26.54.93.93,0,0,0,.3.26,1.39,1.39,0,0,0,.32.12,1.3,1.3,0,0,0,.44,0,1,1,0,0,0,.64-.35,1.11,1.11,0,0,0,.23-.52,1.81,1.81,0,0,0,0-.23.79.79,0,0,0,.22.06,1.1,1.1,0,0,0,.57,0,1,1,0,0,0,.56-.47,1.24,1.24,0,0,0,.16-.75A.91.91,0,0,0,95.49,76.58Z"/><path class="cls-5" d="M95.09,70.13a1.07,1.07,0,0,0-.94-.47l-5.22.3a1,1,0,0,0-.85.57l-2.23,4.73a1.09,1.09,0,0,0,.09,1l3,4.43a1.07,1.07,0,0,0,.94.47l5.21-.3a1,1,0,0,0,.86-.57l2.22-4.73a1.07,1.07,0,0,0-.09-1Zm2.64,4.66a.65.65,0,0,1,0,.62l-2.22,4.73a.6.6,0,0,1-.5.34l-5.22.3a.61.61,0,0,1-.55-.28l-3-4.43a.63.63,0,0,1-.05-.61l2.23-4.73a.57.57,0,0,1,.5-.34l5.21-.3a.64.64,0,0,1,.56.28Z"/><path class="cls-5" d="M95.42,76.87a1.59,1.59,0,0,0-.26-.32,3,3,0,0,0-.63-.43c-.12-.07-.25-.13-.38-.19l-.24-.1h.25a3.17,3.17,0,0,0,.43,0h0a2.54,2.54,0,0,0,.54-.09,1.47,1.47,0,0,0,.54-.24,1,1,0,0,0,.25-.31,1.12,1.12,0,0,0,.1-.31,1.3,1.3,0,0,0,0-.44,1.07,1.07,0,0,0-.89-.91.83.83,0,0,0-.22,0,1.74,1.74,0,0,0,0-.22,1.14,1.14,0,0,0,0-.58,1.21,1.21,0,0,0-.48-.59,1.46,1.46,0,0,0-.41-.16,1.22,1.22,0,0,0-.33,0,.89.89,0,0,0-.38.12,1.42,1.42,0,0,0-.3.25,3.17,3.17,0,0,0-.41.62h0c-.07.13-.12.26-.18.39l-.09.24v-.26l0-.43a3.35,3.35,0,0,0-.11-.55,1.55,1.55,0,0,0-.26-.55.86.86,0,0,0-.31-.26,1.15,1.15,0,0,0-.31-.11,1,1,0,0,0-.43,0,1,1,0,0,0-.65.35,1.11,1.11,0,0,0-.23.52,1.79,1.79,0,0,0,0,.23l-.22-.06a1,1,0,0,0-.57,0,1,1,0,0,0-.57.47,1.14,1.14,0,0,0-.15.4,1.29,1.29,0,0,0,0,.34.91.91,0,0,0,.13.38,1.26,1.26,0,0,0,.25.31,2.74,2.74,0,0,0,.63.44l.39.19.24.1h-.26l-.42,0h0a4.85,4.85,0,0,0-.55.09,1.72,1.72,0,0,0-.53.25.84.84,0,0,0-.25.31A.87.87,0,0,0,88,76a1.3,1.3,0,0,0,0,.44,1.07,1.07,0,0,0,.37.66,1.15,1.15,0,0,0,.52.25.85.85,0,0,0,.23,0,.9.9,0,0,0-.06.22,1.14,1.14,0,0,0,0,.58,1.21,1.21,0,0,0,.48.59,1.27,1.27,0,0,0,.41.15.93.93,0,0,0,.33,0h0a.81.81,0,0,0,.37-.12,1.26,1.26,0,0,0,.31-.25A3,3,0,0,0,91.4,78l0-.07.08-.18.06-.13.09-.24v.26c0,.14,0,.29,0,.43a2.54,2.54,0,0,0,.1.55,1.64,1.64,0,0,0,.26.55.86.86,0,0,0,.31.26,1.1,1.1,0,0,0,.32.11,1,1,0,0,0,.43,0,1,1,0,0,0,.65-.35,1.11,1.11,0,0,0,.23-.52,1.79,1.79,0,0,0,0-.23.79.79,0,0,0,.22.06,1,1,0,0,0,.57,0,1,1,0,0,0,.57-.46,1.4,1.4,0,0,0,.16-.75A1.07,1.07,0,0,0,95.42,76.87Z"/><path class="cls-3" d="M65.85,24.48a.5.5,0,0,0-.35-.37l-2.44-.72a.48.48,0,0,0-.48.12l-1.8,1.8a.49.49,0,0,0-.13.49l.64,2.53a.52.52,0,0,0,.35.37l2.44.72a.49.49,0,0,0,.48-.12l1.8-1.8a.51.51,0,0,0,.13-.5Zm.44,2.57a.3.3,0,0,1-.07.29l-1.8,1.8a.29.29,0,0,1-.29.07l-2.44-.72a.28.28,0,0,1-.2-.22l-.64-2.52a.31.31,0,0,1,.07-.29l1.8-1.8a.31.31,0,0,1,.29-.07l2.44.72a.3.3,0,0,1,.2.22Z"/><path class="cls-3" d="M64.89,27.62a.55.55,0,0,0-.06-.18,1.34,1.34,0,0,0-.22-.31L64.47,27l-.1-.08.12,0,.2.06h0a1.09,1.09,0,0,0,.26.05.72.72,0,0,0,.29,0,.37.37,0,0,0,.16-.09.64.64,0,0,0,.1-.13.48.48,0,0,0,.07-.2.54.54,0,0,0,0-.37.52.52,0,0,0-.2-.19l-.1-.06a.35.35,0,0,0,.06-.09.5.5,0,0,0,.08-.27.57.57,0,0,0-.12-.35,1.07,1.07,0,0,0-.16-.14.94.94,0,0,0-.15-.06.41.41,0,0,0-.19,0,.48.48,0,0,0-.18.07,1.27,1.27,0,0,0-.29.21h0l-.15.15-.08.1s0-.08,0-.12l.06-.2a2.36,2.36,0,0,0,0-.28.74.74,0,0,0,0-.29.56.56,0,0,0-.09-.17.57.57,0,0,0-.13-.1.5.5,0,0,0-.2-.08.48.48,0,0,0-.35,0,.52.52,0,0,0-.19.2.93.93,0,0,0,0,.1l-.09-.06a.62.62,0,0,0-.26-.09.5.5,0,0,0-.34.12.58.58,0,0,0-.14.17.52.52,0,0,0-.06.15.64.64,0,0,0,.06.38,1.29,1.29,0,0,0,.22.3l.14.15.1.09-.12-.05-.2-.06h0a1.09,1.09,0,0,0-.26,0,.71.71,0,0,0-.29,0,.39.39,0,0,0-.16.1.64.64,0,0,0-.1.13.48.48,0,0,0-.07.2.5.5,0,0,0,0,.36.64.64,0,0,0,.2.2l.1.05-.06.09a.53.53,0,0,0-.08.27.55.55,0,0,0,.12.35.7.7,0,0,0,.16.14l.15.07h0a.61.61,0,0,0,.19,0,.64.64,0,0,0,.18-.06,1.06,1.06,0,0,0,.29-.22l0,0,.07-.06.05-.06.08-.09s0,.08,0,.12l-.06.2a2.51,2.51,0,0,0,0,.27.7.7,0,0,0,0,.29.51.51,0,0,0,.09.18l.13.1a.7.7,0,0,0,.2.08.54.54,0,0,0,.35-.06.41.41,0,0,0,.19-.2.31.31,0,0,0,0-.1l.09.07a.5.5,0,0,0,.27.08.45.45,0,0,0,.33-.12.58.58,0,0,0,.2-.31A.45.45,0,0,0,64.89,27.62Z"/><path class="cls-5" d="M65.77,24.6a.5.5,0,0,0-.35-.37L63,23.51a.47.47,0,0,0-.49.12l-1.79,1.8a.51.51,0,0,0-.14.49l.64,2.52a.55.55,0,0,0,.36.38l2.43.72a.51.51,0,0,0,.49-.12l1.8-1.8a.51.51,0,0,0,.13-.5Zm.44,2.57a.28.28,0,0,1-.08.29l-1.8,1.8a.26.26,0,0,1-.28.07l-2.44-.72a.31.31,0,0,1-.21-.22l-.64-2.52a.34.34,0,0,1,.08-.29l1.8-1.8a.3.3,0,0,1,.29-.07l2.43.72a.31.31,0,0,1,.21.22Z"/><path class="cls-5" d="M64.81,27.74a.73.73,0,0,0-.07-.19,1.25,1.25,0,0,0-.21-.3l-.15-.15L64.29,27l.12,0,.19.06h0a1.28,1.28,0,0,0,.27.05.67.67,0,0,0,.28,0,.56.56,0,0,0,.17-.09.64.64,0,0,0,.1-.13.68.68,0,0,0,.07-.2.59.59,0,0,0-.06-.37.55.55,0,0,0-.2-.2l-.09,0L65.2,26a.61.61,0,0,0,.08-.27.58.58,0,0,0-.13-.35.56.56,0,0,0-.16-.14.35.35,0,0,0-.14-.06.45.45,0,0,0-.2,0,.67.67,0,0,0-.18.07,1.42,1.42,0,0,0-.29.21h0l-.14.15a.39.39,0,0,0-.08.1.56.56,0,0,1,0-.12,1.6,1.6,0,0,0,0-.21,1.17,1.17,0,0,0,0-.27.72.72,0,0,0,0-.29.42.42,0,0,0-.1-.17.41.41,0,0,0-.13-.1.46.46,0,0,0-.19-.08.5.5,0,0,0-.36.05.73.73,0,0,0-.19.2l0,.1L63,24.76a.62.62,0,0,0-.27-.09.54.54,0,0,0-.34.12.76.76,0,0,0-.13.17.34.34,0,0,0-.06.15.31.31,0,0,0,0,.19.6.6,0,0,0,.06.19,1.29,1.29,0,0,0,.22.3l.14.15.1.09L62.57,26l-.2-.06h0l-.26-.05a.7.7,0,0,0-.29,0,.34.34,0,0,0-.16.1.32.32,0,0,0-.1.13.6.6,0,0,0-.08.2.57.57,0,0,0,.06.36.64.64,0,0,0,.2.2.31.31,0,0,0,.1.05.47.47,0,0,0-.06.09.53.53,0,0,0-.08.27.55.55,0,0,0,.12.35.54.54,0,0,0,.16.14l.15.07h0a.6.6,0,0,0,.19,0,.64.64,0,0,0,.18-.06,1.48,1.48,0,0,0,.29-.22l0,0,.07-.07,0-.05.09-.09-.05.12a1.17,1.17,0,0,0,0,.2,1.26,1.26,0,0,0,0,.27.7.7,0,0,0,0,.29.31.31,0,0,0,.09.17.45.45,0,0,0,.13.11.77.77,0,0,0,.19.08.56.56,0,0,0,.36-.06.61.61,0,0,0,.19-.2.93.93,0,0,0,.05-.1l.09.07a.5.5,0,0,0,.26.08.5.5,0,0,0,.34-.12.72.72,0,0,0,.2-.31A.67.67,0,0,0,64.81,27.74Z"/><g class="cls-16"><g class="cls-17"><g class="cls-18"><path d="M82.88,41a.47.47,0,0,1-.21-.15l-2.42-3.2a.36.36,0,0,1,0-.46l2.53-3.69a.69.69,0,0,1,.51-.28l5-.5a.56.56,0,0,1,.29,0,.46.46,0,0,1,.21.14l2.42,3.2a.37.37,0,0,1,0,.46l-2.54,3.69a.73.73,0,0,1-.51.28l-5,.5a.64.64,0,0,1-.28,0m5.86-8.55a1.24,1.24,0,0,0-.48-.06l-5,.5a1.21,1.21,0,0,0-.87.48L79.9,37a.65.65,0,0,0,0,.79L82.31,41a.78.78,0,0,0,.36.25,1.27,1.27,0,0,0,.49.06l5-.5a1.2,1.2,0,0,0,.85-.48l2.54-3.69a.66.66,0,0,0,0-.79l-2.42-3.2a.81.81,0,0,0-.37-.25"/><path d="M88.4,34.28l-.24-.06a1.41,1.41,0,0,0-.54.07l-.2.07,0-.16a.64.64,0,0,0-.26-.35.59.59,0,0,0-.19-.11,1.09,1.09,0,0,0-.44-.06,1.4,1.4,0,0,0-.41.06,1.55,1.55,0,0,0-.29.14.87.87,0,0,0-.27.23,1.46,1.46,0,0,0-.17.29,2.3,2.3,0,0,0-.11.57c0,.11,0,.22,0,.32l0,.2-.11-.16a2.48,2.48,0,0,0-.19-.26,2.27,2.27,0,0,0-.3-.32,1.36,1.36,0,0,0-.37-.21l-.07,0a.85.85,0,0,0-.36,0,1.07,1.07,0,0,0-.31.06,1.33,1.33,0,0,0-.38.18.91.91,0,0,0-.41.5.63.63,0,0,0,0,.43l.07.16-.21,0a1.33,1.33,0,0,0-.48.27.85.85,0,0,0-.3.54.58.58,0,0,0,0,.32.65.65,0,0,0,.11.22.55.55,0,0,0,.26.18l.08,0a1.1,1.1,0,0,0,.26.06,3.27,3.27,0,0,0,.7,0h.27l.14,0,.24,0-.22.11a3.9,3.9,0,0,0-.35.19,2.93,2.93,0,0,0-.43.29,1.17,1.17,0,0,0-.36.38.89.89,0,0,0-.11.31.93.93,0,0,0,0,.24.85.85,0,0,0,.17.29.81.81,0,0,0,.33.21l.24.06a1.44,1.44,0,0,0,.54-.07l.21-.08,0,.17a.74.74,0,0,0,.25.36l.2.1a1.09,1.09,0,0,0,.44.06,1.64,1.64,0,0,0,.71-.19,1.55,1.55,0,0,0,.27-.24,1.64,1.64,0,0,0,.16-.29,1.92,1.92,0,0,0,.11-.58v-.51l.1.17.19.26a2.27,2.27,0,0,0,.31.31,1.27,1.27,0,0,0,.38.22l0,0a1.24,1.24,0,0,0,.67,0,1.06,1.06,0,0,0,.37-.18.92.92,0,0,0,.42-.5.64.64,0,0,0,0-.43l-.08-.16.22,0a1.38,1.38,0,0,0,.48-.25.87.87,0,0,0,.3-.54.93.93,0,0,0,0-.33.68.68,0,0,0-.12-.22.65.65,0,0,0-.26-.19l-.06,0-.28-.07a2.8,2.8,0,0,0-.71,0l-.39,0-.24,0,.21-.11A3.9,3.9,0,0,0,88,36a3.35,3.35,0,0,0,.44-.29,1.48,1.48,0,0,0,.36-.39.88.88,0,0,0,.09-.29.77.77,0,0,0,0-.26.71.71,0,0,0-.18-.27.74.74,0,0,0-.32-.22"/></g></g></g><g class="cls-17"><g class="cls-19"><path class="cls-10" d="M82.48,40.81a.41.41,0,0,1-.21-.15l-2.42-3.19a.37.37,0,0,1,0-.46l2.54-3.69A.68.68,0,0,1,82.9,33l5-.49a.57.57,0,0,1,.29,0,.43.43,0,0,1,.2.15l2.43,3.19a.41.41,0,0,1,0,.47l-2.54,3.69a.7.7,0,0,1-.5.28l-5,.49a.46.46,0,0,1-.29,0m5.87-8.55a1.12,1.12,0,0,0-.49,0l-5,.5a1.19,1.19,0,0,0-.86.48L79.5,36.88a.66.66,0,0,0,0,.79l2.43,3.19a.72.72,0,0,0,.35.26,1.11,1.11,0,0,0,.49.05l5-.49a1.22,1.22,0,0,0,.85-.48l2.54-3.69a.68.68,0,0,0,0-.8l-2.42-3.19a.8.8,0,0,0-.36-.26"/><path class="cls-10" d="M88,34.12a.84.84,0,0,0-.24-.06,1.26,1.26,0,0,0-.54.07l-.2.07L87,34a.74.74,0,0,0-.25-.36.68.68,0,0,0-.21-.1,1.18,1.18,0,0,0-.43-.07,2.07,2.07,0,0,0-.41.07l-.29.13a.87.87,0,0,0-.27.23,1.21,1.21,0,0,0-.16.29,1.75,1.75,0,0,0-.11.58,1.71,1.71,0,0,0,0,.32v.2l-.1-.17-.19-.26c-.1-.11-.2-.21-.31-.31a1.23,1.23,0,0,0-.37-.21l-.06,0a1.08,1.08,0,0,0-.37,0,1.16,1.16,0,0,0-.31.07,1.24,1.24,0,0,0-.37.17.94.94,0,0,0-.42.51.79.79,0,0,0,0,.43l.08.15-.22,0a1.43,1.43,0,0,0-.47.26.84.84,0,0,0-.31.54.66.66,0,0,0,0,.32.7.7,0,0,0,.11.23.8.8,0,0,0,.27.18l.07,0a1.1,1.1,0,0,0,.26.06,2.4,2.4,0,0,0,.71,0H83l.18,0h.14l.24,0-.22.11-.35.2a2.65,2.65,0,0,0-.43.28,1.87,1.87,0,0,0-.36.39.71.71,0,0,0-.1.3.69.69,0,0,0,0,.25.78.78,0,0,0,.16.28,1,1,0,0,0,.57.27,1.63,1.63,0,0,0,.54-.06l.21-.08,0,.17a.79.79,0,0,0,.26.35l.21.11a1.19,1.19,0,0,0,.42.06,1.61,1.61,0,0,0,.71-.2,1,1,0,0,0,.27-.24,1,1,0,0,0,.16-.28,1.7,1.7,0,0,0,.11-.58v-.52l.1.17a1.64,1.64,0,0,0,.2.26,1.46,1.46,0,0,0,.3.31,1.37,1.37,0,0,0,.43.24.87.87,0,0,0,.36,0,1.23,1.23,0,0,0,.32-.07,1,1,0,0,0,.37-.17,1.05,1.05,0,0,0,.42-.5.73.73,0,0,0,0-.44l-.07-.15.21-.05a1.29,1.29,0,0,0,.48-.25.87.87,0,0,0,.3-.55.58.58,0,0,0,0-.32.51.51,0,0,0-.12-.23.75.75,0,0,0-.26-.18l-.07,0a1.18,1.18,0,0,0-.27-.06,2.34,2.34,0,0,0-.7,0l-.4,0-.24,0L87.3,36c.11-.06.23-.12.35-.2a4,4,0,0,0,.43-.28,1.64,1.64,0,0,0,.36-.39.69.69,0,0,0,.09-.3.52.52,0,0,0,0-.25.81.81,0,0,0-.17-.28.78.78,0,0,0-.33-.21"/></g></g><g class="cls-17"><g class="cls-20"><g class="cls-21"><g class="cls-22"><g class="cls-23"><path class="cls-24" d="M33.59,25.58a.44.44,0,0,0-.24.07l0,0,.06,0,4,3.19a.76.76,0,0,1,.27.58l0,5.51v.09c0,.09,0,.17-.08.24l-.19.2-4,2.3.18.07h.17l.12,0,4-2.32.08,0a1.31,1.31,0,0,0,.06-.27v-.16l0-5.52a1.32,1.32,0,0,0-.18-.65l-4-3.18-.24-.11h-.07m-.54-.44a.63.63,0,0,0-.38.09l-4,2.34a.7.7,0,0,0-.3.27l-.06.12a1.5,1.5,0,0,0-.09.35l0,.15,0,5.51a1.26,1.26,0,0,0,.47,1l4,3.2a1,1,0,0,0,.53.2.69.69,0,0,0,.28,0,.89.89,0,0,1-.29-.15l-3.87-3.07-.25-.2a1.05,1.05,0,0,1-.2-.27l0,0a.8.8,0,0,1-.27-.59V28.39l.07-.22.11-.15v0h0v0l.07-.12a.9.9,0,0,1,.28-.27l4-2.33.12-.05a.85.85,0,0,0-.23,0"/><path class="cls-24" d="M33.67,35.45l-.13.17-.15.14a1,1,0,0,0,.35.27.81.81,0,0,0,.59,0l-.09,0a1,1,0,0,1-.44-.35l-.13-.2m1.2-2.14.12.24a2.42,2.42,0,0,1,.19.4h0l.15.08a1.2,1.2,0,0,0,.52.15h0a.68.68,0,0,0,.23,0,1,1,0,0,1-.29-.12,3,3,0,0,1-.45-.27,2.17,2.17,0,0,1-.32-.27l-.19-.17M32.46,33l-.19.14c-.11.06-.21.13-.32.18l-.25.12-.06.14a3.28,3.28,0,0,0-.2.52l-.05.21v.09a1.08,1.08,0,0,0,0,.31.85.85,0,0,0,.09.41,1.08,1.08,0,0,0,.19.3,2,2,0,0,0,.29.29.86.86,0,0,0,.49.16.47.47,0,0,0,.17,0l.11,0-.26-.12a1.7,1.7,0,0,1-.49-.6,1.58,1.58,0,0,1-.09-.42v-.19a.49.49,0,0,1,0-.12c0-.09,0-.19.07-.3a2.64,2.64,0,0,1,.19-.51l.19-.35.13-.22m3.27-3.15h-.25a2.4,2.4,0,0,0-.38.12l-.11.22-.14.2.2-.13.09-.07.15-.08.07,0a1.75,1.75,0,0,1,.53-.22h-.16m-5.27-.58a.8.8,0,0,0-.34.07l-.23.2-.16.21-.06.13a2.63,2.63,0,0,0-.09.3,1.85,1.85,0,0,0,0,.47,1.54,1.54,0,0,0,.28.54l.15.19-.14.13-.17.21a2.15,2.15,0,0,0-.1.27l0,.15a1.28,1.28,0,0,0,.08.64,1.87,1.87,0,0,0,.22.39,1,1,0,0,0,.26.24.72.72,0,0,0,.32.15l.15,0,.2,0,.1,0a.85.85,0,0,1-.29-.14,1.61,1.61,0,0,1-.22-.23,1.07,1.07,0,0,1-.23-.4,1.54,1.54,0,0,1-.09-.6.28.28,0,0,1,0-.09V32a1,1,0,0,1,.11-.25l.15-.22.16-.16-.16-.16a1.33,1.33,0,0,1-.26-.55,2.16,2.16,0,0,1,0-.35.49.49,0,0,1,0-.12,1.37,1.37,0,0,1,.07-.29l.07-.12.16-.23.23-.18.07,0-.24,0m3.42-1.72H33.7a.74.74,0,0,0-.28.14l.09.09.13.19.14-.16a.68.68,0,0,1,.32-.23.85.85,0,0,0-.22,0m-1.59-.18a.83.83,0,0,0-.37.08,1,1,0,0,0-.47.45l0,0a.89.89,0,0,0-.09.29v.09a1.18,1.18,0,0,0,0,.42,3.69,3.69,0,0,0,.26.75,3.3,3.3,0,0,1,.3.22,1.72,1.72,0,0,1,.33.26l.2.17-.14-.24-.19-.41a3.57,3.57,0,0,1-.25-.76,2,2,0,0,1,0-.42v-.11a1.33,1.33,0,0,1,.1-.28l0-.06a1.09,1.09,0,0,1,.45-.43l.07,0a.69.69,0,0,0-.2,0"/></g><g class="cls-25"><path class="cls-10" d="M33.59,25.58h.07l.24.11,4,3.18,0,0a.72.72,0,0,1,.28.58v5.63l-.07.22-.11.15-.08,0-4,2.32-.12,0h-.17l-.18-.07-.06,0-4-3.21a.72.72,0,0,1-.27-.58l0-5.51v-.1l.08-.23.19-.2,4-2.29,0,0a.44.44,0,0,1,.24-.07h0m0-.44a.68.68,0,0,0-.28,0l-.12.05-4,2.33a.9.9,0,0,0-.28.27h0L28.8,28l0,0a1.31,1.31,0,0,0-.06.27v.16l0,5.51a1.36,1.36,0,0,0,.18.66,1.05,1.05,0,0,0,.2.27l.25.2,3.87,3.07a.89.89,0,0,0,.29.15.78.78,0,0,0,.21,0,.9.9,0,0,0,.4-.09l4-2.34a.58.58,0,0,0,.29-.27l0-.1a1,1,0,0,0,.1-.3v-.06l0-.16,0-5.5a1.31,1.31,0,0,0-.35-.89l-.36-.3-3.78-3a.94.94,0,0,0-.53-.2"/><path class="cls-10" d="M33.48,37.83l.18.07h0l-.18-.07M38,35.48l-.08,0-4,2.32-.12,0,.12,0,4-2.32.08,0M28.8,28h0v0l0,0m4.79-2.4h0m-.31-.4-.12.05-4,2.33a.9.9,0,0,0-.28.27.9.9,0,0,1,.28-.27l4-2.33.12-.05"/><path class="cls-10" d="M32.78,27.4a.92.92,0,0,0-.29,0l-.07,0a1.09,1.09,0,0,0-.45.43l0,.06a1.33,1.33,0,0,0-.1.28v.11a2,2,0,0,0,0,.42,3.57,3.57,0,0,0,.25.76l.19.41.14.24-.2-.17a1.72,1.72,0,0,0-.33-.26,3.3,3.3,0,0,0-.3-.22l-.14-.07a1.2,1.2,0,0,0-.52-.15.59.59,0,0,0-.26,0l-.07,0-.23.18-.16.23-.07.12a1.37,1.37,0,0,0-.07.29.49.49,0,0,0,0,.12,2.16,2.16,0,0,0,0,.35,1.33,1.33,0,0,0,.26.55l.16.16-.16.16-.15.22a1,1,0,0,0-.11.25v.1a.28.28,0,0,0,0,.09,1.54,1.54,0,0,0,.09.6,1.07,1.07,0,0,0,.23.4,1.61,1.61,0,0,0,.22.23.85.85,0,0,0,.29.14H31l.15,0a.68.68,0,0,0,.2,0,2.15,2.15,0,0,0,.36-.11l.25-.12c.11,0,.21-.12.32-.18l.19-.14-.13.22-.19.35a2.64,2.64,0,0,0-.19.51c0,.11-.05.21-.07.3a.49.49,0,0,0,0,.12v.19a1.58,1.58,0,0,0,.09.42,1.7,1.7,0,0,0,.49.6l.26.12.22,0,.18,0a.6.6,0,0,0,.28-.13l.15-.14.13-.17.13.2a1,1,0,0,0,.44.35l.09,0,.21,0a.72.72,0,0,0,.35-.08.66.66,0,0,0,.31-.21l.16-.21,0-.06a1.34,1.34,0,0,0,.08-.26v-.12a1.31,1.31,0,0,0,0-.44,3.12,3.12,0,0,0-.26-.74h0a2.42,2.42,0,0,0-.19-.4l-.12-.24.19.17a2.17,2.17,0,0,0,.32.27,3,3,0,0,0,.45.27,1,1,0,0,0,.29.12l.23,0a1,1,0,0,0,.34-.07l.23-.19.16-.22.06-.12.06-.22,0-.08a1.55,1.55,0,0,0,0-.48,1.25,1.25,0,0,0-.27-.54l-.15-.18.15-.13.16-.21a2.47,2.47,0,0,0,.1-.29l0-.11a1.47,1.47,0,0,0-.08-.66,1.89,1.89,0,0,0-.22-.4.92.92,0,0,0-.25-.23.58.58,0,0,0-.33-.15l-.16,0a.62.62,0,0,0-.19,0h-.09a1.75,1.75,0,0,0-.53.22l-.07,0-.15.08-.09.07-.2.13.14-.2L35.1,30l.07-.15a3,3,0,0,0,.2-.52,1.67,1.67,0,0,0,.06-.29,1.69,1.69,0,0,0,0-.32.88.88,0,0,0-.1-.41,1.08,1.08,0,0,0-.18-.3,1.38,1.38,0,0,0-.3-.29.85.85,0,0,0-.46-.16.58.58,0,0,0-.19,0l-.11,0a.68.68,0,0,0-.32.23l-.14.16-.13-.19-.09-.09a1,1,0,0,0-.35-.27,1,1,0,0,0-.29-.07"/></g></g></g></g></g><g class="cls-17"><g class="cls-26"><g class="cls-27"><g class="cls-28"><g class="cls-29"><g class="cls-30"><g class="cls-31"><path class="cls-24" d="M21.14,63.28l-.07.11v0h.08l2.72-.59a.53.53,0,0,1,.35.06l2.17,1.42.09.1,0,.14-.53,2,0,0,.09-.12.55-2,0-.09,0,.09-.55,2-.09.12,0,0,0,0,.09-.12.55-2,0-.09,0,0,0,0-2.2-1.43a.75.75,0,0,0-.39-.12l-2.67.58-.15.06m-.42.17a.22.22,0,0,0,0,.08l-.54,2a.37.37,0,0,0,0,.18l0,.06.08.11.07,0,2.18,1.44a.8.8,0,0,0,.41.1l.24,0,2.65-.57a.5.5,0,0,0,.27-.14.46.46,0,0,0,.07-.07l0-.07a1.23,1.23,0,0,1-.23.09l-2.71.58H23a.48.48,0,0,1-.33,0l-2.18-1.44-.09-.08,0-.06,0,0v0l0,0a.23.23,0,0,1,0-.2l.54-2v0l-.05,0,0,0,0,.06"/><path class="cls-24" d="M25.05,65.83l0,.1V66a1.31,1.31,0,0,0,.27-.06l.14-.09.09-.13v0l-.09,0a.8.8,0,0,1-.3.06h-.14m-.41-1,.15,0,.23,0h.05l.05,0a.81.81,0,0,0,.26-.15l.09-.14a.61.61,0,0,1-.18.09l-.28.1-.23,0-.14,0m-1,.77,0,.11,0,.16,0,.09.05.1,0,0,.11.15.11.11.09.07.21.08h.18l.22,0a.55.55,0,0,0,.26-.14l.06,0,0-.08-.19.09-.22,0h-.19l-.19-.06-.1-.09-.11-.11L23.8,66l0,0-.08-.16,0-.11m-.14-1.82s-.05.09-.08.14l0,.07,0,.1,0-.11V64l0-.07v0l.1-.19-.1.1,0,.05m-2,1.56-.09.15v.12l0,.15,0,0,.11.12.18.11a1,1,0,0,0,.3,0h.13v.09l.05.15.05.06,0,0a.73.73,0,0,0,.29.15l.23,0,.18,0,.19-.06.13-.14.05-.09,0,0v0l-.17.06-.18,0-.23,0-.23-.09-.06,0,0,0-.06-.06L22.3,66v-.09h-.12a.72.72,0,0,1-.32,0l-.14-.07,0,0-.11-.12,0,0,0-.14,0-.12h0l-.06,0m.5-1.58,0,.11h0l.14,0,0-.1v-.15l-.13.12m-.59.46-.1.14a.37.37,0,0,0,0,.29l.08.11,0,0,.18.09A1.79,1.79,0,0,0,22,65l.21-.06.21,0h.14l-.14,0-.22,0a1.82,1.82,0,0,1-.39-.11l-.18-.1,0,0-.1-.11a.48.48,0,0,1,0-.29l-.05,0"/></g><g class="cls-32"><path class="cls-10" d="M26,66.51l-.1,0-2.72.57a.42.42,0,0,1-.33,0l-2.19-1.42-.09-.11,0-.13.54-2v0l.07-.11.15-.06L24,62.64H24a.51.51,0,0,1,.34,0l2.18,1.43.09.09v.05l0,.09-.55,2-.09.12,0,0,0,0,.09-.12.55-2,0-.09,0,.09-.55,2-.09.12,0,0m-5-3.33-.1.14v0l-.54,2a.23.23,0,0,0,0,.2l0,0h0l0,0,0,0,.06,0,0,0,2.19,1.43a.81.81,0,0,0,.38.12h.22L26,66.7a1.23,1.23,0,0,0,.23-.09l.05,0,0,0,.08-.14.54-2a.24.24,0,0,0,0-.19l0-.08h0L26.74,64l0,0-2.19-1.44a.84.84,0,0,0-.45-.11l-.07,0H23.9l-2.7.57a.9.9,0,0,0-.26.13"/><polyline class="cls-10" points="23.23 67.28 23.23 67.28 23.24 67.28 25.95 66.7 23.26 67.28 23.23 67.28"/><polyline class="cls-10" points="20.31 65.56 20.33 65.6 20.33 65.59 20.31 65.56"/><path class="cls-10" d="M21.54,64.06l-.09.13v0a.48.48,0,0,0,0,.29l.1.11,0,0,.18.1a1.82,1.82,0,0,0,.39.11l.22,0,.14,0h-.14l-.21,0L22,65l-.07,0a.75.75,0,0,0-.22.13l0,0,0,0-.07.11h0l0,.12,0,.14,0,0,.11.12,0,0,.14.07a.72.72,0,0,0,.32,0h.12V66l.05.15.06.06,0,0,.06,0,.23.09.23,0,.18,0,.17-.06v0l0,0,.09-.09.06-.08a.37.37,0,0,0,.05-.11l0-.09,0-.16,0-.11,0,.11.08.16,0,0,.11.15.11.11.1.09.19.06h.19l.22,0,.19-.09.12-.11,0-.12v-.1l0-.1h.14a.8.8,0,0,0,.3-.06l.09,0,0,0,0,0,.07-.12,0-.16-.05-.13-.09-.12,0,0L25.41,65l-.34-.11H25l-.23,0-.15,0,.14,0,.23,0,.28-.1a.61.61,0,0,0,.18-.09l.07,0,.09-.14V64.3l-.06-.17L25.47,64l-.17-.11a1.1,1.1,0,0,0-.31,0h-.13v-.08l-.05-.15,0-.07-.05,0a.69.69,0,0,0-.28-.15l-.23,0-.18,0-.2.07-.11.14-.05.08-.1.19v0l0,.07V64l0,.11,0-.1,0-.07,0-.09,0-.06-.12-.15-.11-.12-.09-.06-.2-.08h-.18l-.23,0a.6.6,0,0,0-.24.12l-.06.07,0,.07v.15l0,.1-.14,0h0l-.27.07-.14.09"/></g></g></g></g></g></g></g><path class="cls-4" d="M55.18,84.51l1.52.63h0l2.56-.24.67-.06H60a.18.18,0,0,0,.21.16.19.19,0,0,0,.17-.21.2.2,0,0,0-.21-.17.19.19,0,0,0-.17.2h-.05l-.68,0-2.54.2-1.52-.65h0l-10.89,1-3.81.38-.74-.37v.14l.7.35h0l3.83-.37Z"/><path class="cls-4" d="M56.58,83.54l-1.43-.44h0l-.92.09c-.05-.59-.1-1.15-.14-1.68v-.06H54l-4.2.47-1.17.14H48.5a.19.19,0,0,0-.37.06.19.19,0,1,0,.37,0h.13L49.81,82l4.14-.4c0,.54.09,1.1.13,1.69v.06h.07l1-.1,1.43.44h0l1.79-.17,8-.8,1.49.82h0l1.51-.17.4,0h0a.37.37,0,0,0,.49.19.35.35,0,0,0,.21-.26.36.36,0,0,0-.1-.34.34.34,0,0,0-.22-.09s-.08,0-.08,0a.33.33,0,0,1,.22.13.24.24,0,0,1,.05.24.25.25,0,0,1-.31.18.26.26,0,0,1-.16-.13.28.28,0,0,1,0-.25c.07-.14.2-.15.19-.17s0,0-.08,0a.26.26,0,0,0-.19.13.35.35,0,0,0,0,.33h0l-.4,0-1.5.13-1.46-.84h0l-8.05.77Z"/><path class="cls-4" d="M48.16,97.93a.31.31,0,0,0-.22-.09.15.15,0,0,0-.08,0,.32.32,0,0,1,.22.14.29.29,0,0,1,.05.24.26.26,0,0,1-.32.17.25.25,0,0,1-.16-.37c.08-.14.21-.16.2-.18s0,0-.08,0a.33.33,0,0,0-.19.13.36.36,0,0,0,0,.36.38.38,0,0,0,.71-.07h0l.29,0,1.07-.09,3.75-.34h0v0l1.08-2.29h0v0c0-.35-.07-.7-.1-1.06-.15-1.55-.3-3-.42-4.25v0h0l-1.79-1.18h0l-1.76.2-.47,0h-.06a.39.39,0,0,0-.11-.22.29.29,0,0,0-.22-.09.15.15,0,0,0-.08,0,.32.32,0,0,1,.22.14.26.26,0,0,1,0,.24.25.25,0,0,1-.31.18.26.26,0,0,1-.16-.13.28.28,0,0,1,0-.25c.07-.14.2-.16.19-.18s0,0-.08,0a.33.33,0,0,0-.19.13.36.36,0,0,0,0,.36.38.38,0,0,0,.71-.07v-.11h.06l.48,0L52.15,89c.5.34,1.09.74,1.75,1.17.12,1.24.26,2.69.4,4.22,0,.35.07.7.11,1l-1,2.24-3.72.38-1.06.12-.28,0h-.06A.35.35,0,0,0,48.16,97.93Z"/><path class="cls-4" d="M64.56,93.94l.38,0H65v0a.19.19,0,0,0,.21.17h0a.2.2,0,0,0,.17-.21.19.19,0,0,0-.2-.18.18.18,0,0,0-.17.16h-.07l-.39,0L63.13,94l-4.77.34c-.06-.53-.13-1.08-.2-1.65l-.06-.45,1.71-1.88,0,0v0c-.06-.61-.12-1.19-.17-1.71v0l0,0-.57-.46,0,0h0l-2.16.24-.59.07H56.2a.32.32,0,0,0-.1-.22.31.31,0,0,0-.22-.09c-.06,0-.08,0-.08,0a.35.35,0,0,1,.22.13.3.3,0,0,1,.06.18h0a.06.06,0,0,1,0,.06.26.26,0,0,1-.31.18.25.25,0,0,1-.16-.14.28.28,0,0,1,0-.25c.08-.13.2-.15.2-.17s0,0-.09,0a.41.41,0,0,0-.19.13.37.37,0,0,0,0,.35.36.36,0,0,0,.49.19.33.33,0,0,0,.21-.26.14.14,0,0,0,0-.09h.07l.6,0L59,88.17l.53.44c.05.51.1,1.07.16,1.67L58,92.15l0,0v0c0,.16,0,.32.06.49l.22,1.71v.06h.06l4.82-.39Z"/><path class="cls-4" d="M61.71,93.33c-.11-1.24-.22-2.55-.33-3.88,0-.19,0-.37,0-.55v0l0,0-1.84-1.58,0,0h0L48.09,88.36h0L41.17,93l0,.08,6.9-4.6,11.31-1.1,1.79,1.53c0,.18,0,.35,0,.53.12,1.35.22,2.68.33,3.94v.07h.07l15.16-1.32,0-.1Z"/><path class="cls-4" d="M61.43,86.29c0,.37.11.9.18,1.57h0l0,0,3.22,2.5h0L69.18,90l7.41-.73,1-.11v-.08l-1,.09-7.41.71-4.26.41-3.22-2.44c-.09-.66-.16-1.18-.22-1.55,0-.17,0-.31-.06-.41l0-.14a.33.33,0,0,0,0,.14A2.67,2.67,0,0,1,61.43,86.29Z"/><path class="cls-4" d="M57.42,103.65l0,0v0c-.2-2-.4-4-.56-5.65v0l0,0-1.67-1.36c-.15-1.44-.27-2.62-.36-3.45,0-.4-.08-.72-.1-1s0-.18,0-.24h0a.19.19,0,0,0,.18-.21.2.2,0,0,0-.21-.17.19.19,0,0,0-.17.21h0a.17.17,0,0,0,.15.16,2.36,2.36,0,0,0,0,.25c0,.22.05.55.08,1,.08.84.19,2,.32,3.47v0L56.77,98c.16,1.67.34,3.57.53,5.6l-.18.22-.72.87.16,0c.22-.26.43-.53.65-.81Z"/><path class="cls-4" d="M62.92,87.56v0l0,0,.67.48,1.89,1.34h0L70.41,89l1.42-.16.32,0a.19.19,0,0,0,.37,0,.19.19,0,0,0-.2-.17h0a.19.19,0,0,0-.17.2l-.33,0-1.42.12-4.84.43L63.69,88,63,87.51c-.14-1.47-.28-2.83-.4-4v0h-.05l-3.07.32-.86.1-.12,0a.18.18,0,0,0-.05-.07.31.31,0,0,0-.22-.09.12.12,0,0,0-.08,0,.35.35,0,0,1,.22.13v0l-.08,0h.08a.28.28,0,0,1,0,.22.25.25,0,0,1-.31.17.23.23,0,0,1-.16-.13.23.23,0,0,1,0-.25c.07-.14.2-.15.19-.17s0,0-.08,0a.34.34,0,0,0-.2.13.36.36,0,0,0,0,.35.39.39,0,0,0,.5.19.42.42,0,0,0,.21-.26.34.34,0,0,0,0-.24h.11l.86-.07,3-.27C62.65,84.75,62.78,86.1,62.92,87.56Z"/><path class="cls-4" d="M77.53,84.93l-1.81-1.49,0,0h0l-.16,0-7.81.77-1.24-.7h0l-1.61.16h0l0,0-1.61,2h0c0,.52.1.93.13,1.22,0,.12,0,.23,0,.31a.36.36,0,0,0,0,.1v-.11c0-.07,0-.18,0-.31,0-.28-.06-.68-.1-1.2l1.62-2,1.58-.14,1.24.71h0l7.82-.75.13,0L77.47,85l0,0h0l.39,0v-.13Z"/><path class="cls-4" d="M46.51,79.52,62,78l2.3,2.39v0h0L69,79.92l1.26-.13.33,0h.06a.08.08,0,0,0,0,0,.37.37,0,0,0,.49.19.4.4,0,0,0,.21-.25.35.35,0,0,0-.1-.34.31.31,0,0,0-.22-.09c-.06,0-.08,0-.08,0a.3.3,0,0,1,.22.13.3.3,0,0,1,0,.24.26.26,0,0,1-.48,0,.28.28,0,0,1,0-.25c.08-.14.21-.15.2-.17s0,0-.08,0a.34.34,0,0,0-.2.13.41.41,0,0,0,0,.29H70.6l-.32,0L69,79.89l-4.67.44-2.29-2.42,0,0h0L46.5,79.39,40.64,80c0,.05,0,.09,0,.13Z"/><path class="cls-4" d="M62.7,77.2l-1.38.11-4.54.43-.06-.61v-.08l0,0-1.77-1h0l-3.65.38-1,.12-.28,0-.1,0a.17.17,0,0,0,.1,0h.28l1.06-.09,3.63-.33,1.73,1v0l.06.68v.06h.07l4.6-.47,1.37-.15.37-.05.13,0h-.5Z"/><path class="cls-4" d="M70.83,75.87l2.44,2.5h0l3-.3a.15.15,0,0,0,0-.07l-2.94.26L70.9,75.76l0,0h0l-1.95.19-7.22.72-2.19.23L58.9,77l-.21,0h.21l.6,0,2.19-.19,7.22-.68Z"/><path class="cls-4" d="M60.26,75.14v0l0,0,1,1,0,0h0l5.8-.57,3-.29h0v0l2.27-3-.08-.09-2.27,3-3,.29-5.77.55-1-1c-.34-3.42-.63-6.33-.84-8.39v0h-.07v0C59.67,68.79,59.94,71.72,60.26,75.14Z"/><path class="cls-4" d="M52.67,68.88h0l1.91,1.57c.19,1.86.36,3.53.49,4.87v0h0l1.77.88h0L58,76.13l.28,0,.1,0h-.1l-.28,0-1.08.09-1.73-.88c-.13-1.34-.29-3-.46-4.87v0l0,0L52.8,68.81l-.12-1.13-.12,0c0,.37.07.75.11,1.13Z"/><path class="cls-4" d="M65.08,81.35h0l-1.11.78-3.5.37-1,.11-.24,0a.35.35,0,0,0-.1-.2.36.36,0,0,0-.22-.09s-.08,0-.08,0a.29.29,0,0,1,.22.13.22.22,0,0,1,.06.15h0v.09a.28.28,0,0,1-.22.19.26.26,0,0,1-.25-.14.23.23,0,0,1,0-.25c.07-.14.2-.16.19-.18s0,0-.08,0a.39.39,0,0,0-.2.13.37.37,0,0,0,.47.54.36.36,0,0,0,.2-.25.24.24,0,0,0,0-.12l.25,0,1-.08,3.51-.31h0l1.11-.78,1.86-.15,5.75-.47,1.74-.16.45,0a.19.19,0,1,0,.18-.2.19.19,0,0,0-.18.18l-.45,0-1.75.12-5.75.44Z"/><path class="cls-4" d="M58.27,104.76a2.36,2.36,0,0,0,0-.25c0-.3-.06-.69-.09-1.16-.09-1-.21-2.33-.36-3.82,0-.46-.09-.92-.13-1.35v0l0,0-2.19-1.78c0-.36-.08-.66-.1-.88s0-.25,0-.29h.07a.19.19,0,0,0,.18-.21.2.2,0,0,0-.21-.17.19.19,0,0,0-.17.21h0a.18.18,0,0,0,.12.16s0,.14,0,.3,0,.52.07.89v0h0l2.17,1.81c0,.42.08.86.12,1.31.15,1.49.29,2.84.39,3.82.06.47.1.85.14,1.15l0,.25a.19.19,0,0,0-.11.07h.3A.22.22,0,0,0,58.27,104.76Z"/></svg>